<?xml version="1.0" encoding="UTF-8" standalone="no"?>
<!DOCTYPE svg PUBLIC "-//W3C//DTD SVG 1.1//EN" "http://www.w3.org/Graphics/SVG/1.1/DTD/svg11.dtd">
<svg xmlns="http://www.w3.org/2000/svg" version="1.1" viewBox="0.00 0.00 360.00 360.00">
<g stroke-width="2.00" fill="none" stroke-linecap="butt">
<path stroke="#a47f48" vector-effect="non-scaling-stroke" d="
  M 108.46 111.50
  Q 107.95 111.94 108.47 112.61"
/>
<path stroke="#d7b17b" vector-effect="non-scaling-stroke" d="
  M 108.47 112.61
  L 108.75 113.46"
/>
<path stroke="#f0cb94" vector-effect="non-scaling-stroke" d="
  M 108.75 113.46
  Q 106.85 114.16 105.64 115.69
  C 103.28 118.68 102.06 119.88 99.18 121.77
  A 1.06 1.06 0.0 0 0 99.01 123.41
  Q 99.13 123.52 99.43 123.57"
/>
<path stroke="#a47f48" vector-effect="non-scaling-stroke" d="
  M 99.43 123.57
  Q 100.76 124.56 101.29 126.00"
/>
<path stroke="#7eac70" vector-effect="non-scaling-stroke" d="
  M 101.29 126.00
  L 102.90 130.26
  A 0.65 0.65 0.0 0 1 101.89 131.00
  L 99.04 128.77"
/>
<path stroke="#a1793b" vector-effect="non-scaling-stroke" d="
  M 99.04 128.77
  L 95.32 125.86"
/>
<path stroke="#f0cb94" vector-effect="non-scaling-stroke" d="
  M 95.32 125.86
  Q 94.48 124.81 92.01 125.30
  Q 88.78 125.95 85.50 126.29"
/>
<path stroke="#a1793b" vector-effect="non-scaling-stroke" d="
  M 85.50 126.29
  L 84.16 126.24"
/>
<path stroke="#cccccc" vector-effect="non-scaling-stroke" d="
  M 111.01 113.32
  L 108.75 113.46"
/>
<path stroke="#4a4740" vector-effect="non-scaling-stroke" d="
  M 274.39 93.92
  Q 274.36 95.25 273.90 95.98"
/>
<path stroke="#a47f48" vector-effect="non-scaling-stroke" d="
  M 273.90 95.98
  Q 270.99 87.66 264.13 83.24
  C 250.54 74.50 231.86 82.86 229.69 99.18
  C 228.26 109.90 234.32 114.46 238.27 123.76
  Q 239.57 126.80 240.78 129.94
  Q 240.97 130.44 241.50 130.46
  L 247.53 130.70"
/>
<path stroke="#4a4740" vector-effect="non-scaling-stroke" d="
  M 247.53 130.70
  Q 247.33 131.36 247.76 131.45
  Q 248.46 131.59 248.66 131.11"
/>
<path stroke="#9b6c37" vector-effect="non-scaling-stroke" d="
  M 248.66 131.11
  L 254.45 130.93"
/>
<path stroke="#4a4740" vector-effect="non-scaling-stroke" d="
  M 254.45 130.93
  Q 254.89 131.57 255.77 131.76"
/>
<path stroke="#277a75" vector-effect="non-scaling-stroke" d="
  M 255.77 131.76
  L 240.69 131.90
  A 0.92 0.90 -12.1 0 1 239.84 131.36
  L 237.39 125.90
  A 1.04 1.03 -11.6 0 0 236.46 125.29
  L 197.72 125.17
  Q 197.18 125.16 197.48 125.62
  C 201.22 131.24 203.50 135.23 199.05 141.44
  A 0.81 0.81 0.0 0 0 199.05 142.36
  Q 199.70 143.27 200.77 143.63
  Q 201.27 143.80 201.64 144.16
  L 211.60 153.86
  A 0.47 0.47 0.0 0 1 211.58 154.54
  L 207.94 157.76
  A 1.07 1.07 0.0 0 1 207.00 158.00
  C 202.50 156.98 197.39 150.60 194.74 147.36
  Q 194.46 147.01 194.03 147.14
  L 189.84 148.35
  Q 189.26 148.52 189.24 149.13
  Q 188.79 168.89 189.03 177.00
  Q 189.12 179.72 188.52 181.66
  Q 188.32 182.33 187.61 182.33
  L 105.48 181.94
  Q 104.78 181.94 104.78 181.23
  L 104.73 135.44
  A 2.36 2.36 0.0 0 1 107.07 133.08
  L 173.11 132.74
  Q 173.58 132.73 173.80 132.31
  L 177.00 125.96
  Q 177.47 125.04 176.43 125.03
  L 103.72 124.70
  A 1.05 1.04 -65.7 0 0 103.02 124.97
  Q 102.22 125.69 101.29 126.00"
/>
<path stroke="#999999" vector-effect="non-scaling-stroke" d="
  M 99.43 123.57
  Q 100.15 123.20 100.75 123.20
  Q 138.91 122.98 177.06 123.26
  Q 180.22 123.28 184.01 122.30
  C 188.38 121.17 191.90 122.98 195.93 122.99
  Q 215.72 123.05 235.64 122.98
  Q 236.55 122.98 236.09 122.19
  L 231.27 113.97
  Q 230.97 113.47 230.38 113.47
  L 111.01 113.32"
/>
<path stroke="#7f8080" vector-effect="non-scaling-stroke" d="
  M 111.01 113.32
  Q 109.97 112.57 108.47 112.61"
/>
<path stroke="#26231c" stroke-opacity="0.996" vector-effect="non-scaling-stroke" d="
  M 222.04 276.38
  L 220.24 277.09"
/>
<path stroke="#7d7a73" vector-effect="non-scaling-stroke" d="
  M 220.24 277.09
  Q 209.42 271.39 207.40 260.08
  A 0.52 0.50 62.6 0 1 207.53 259.65
  Q 208.05 259.12 206.57 258.80
  Q 206.08 258.69 205.58 258.68
  Q 192.26 258.26 178.94 258.66
  Q 178.66 258.66 178.52 258.92
  Q 178.44 259.07 178.51 259.23"
/>
<path stroke="#26231c" stroke-opacity="0.996" vector-effect="non-scaling-stroke" d="
  M 178.51 259.23
  L 177.79 259.25"
/>
<path stroke="#96938c" vector-effect="non-scaling-stroke" d="
  M 85.50 126.29
  L 85.56 200.04
  Q 85.56 200.46 85.98 200.40
  L 94.81 198.93
  Q 95.30 198.85 95.30 198.35
  L 95.32 125.86"
/>
<path stroke="#247468" vector-effect="non-scaling-stroke" d="
  M 99.04 128.77
  Q 98.03 128.78 97.47 129.21
  Q 96.98 129.58 96.98 130.58
  Q 97.26 164.43 97.26 198.28
  Q 97.26 198.75 97.73 198.78
  Q 125.81 200.71 136.08 226.57
  Q 136.28 227.07 136.82 227.17
  Q 139.14 227.58 141.50 227.52
  C 156.93 227.19 173.85 227.74 187.75 227.75
  Q 236.27 227.77 285.84 227.65
  Q 289.00 227.65 289.00 224.49
  L 289.00 217.51
  Q 289.00 216.93 288.50 217.22
  C 287.22 217.97 286.41 219.24 285.11 219.66
  Q 281.43 220.86 278.30 217.71
  Q 273.24 212.62 268.20 207.56
  C 264.19 203.54 266.64 196.96 272.15 197.47
  C 279.46 198.14 280.97 211.49 289.86 198.83
  Q 290.06 198.55 289.77 198.38
  Q 289.45 198.18 289.46 197.69
  Q 289.54 190.78 289.31 183.89
  C 288.74 167.04 289.00 150.15 289.02 133.29
  C 289.02 131.32 289.56 128.43 288.91 125.76
  Q 288.78 125.26 288.28 125.13
  C 282.31 123.61 273.70 124.46 267.45 124.84
  Q 266.86 124.88 266.64 125.43
  L 264.37 131.19
  Q 264.16 131.72 263.60 131.72
  L 255.77 131.76"
/>
<path stroke="#98662a" vector-effect="non-scaling-stroke" d="
  M 254.45 130.93
  Q 254.81 131.08 255.03 130.88
  Q 255.18 130.76 255.21 130.42
  C 255.57 126.70 255.01 122.99 256.45 119.51
  Q 259.37 112.42 262.36 105.80
  A 1.69 1.69 0.0 0 0 259.63 103.90
  C 258.13 105.39 256.62 110.37 253.74 106.99
  Q 251.37 104.22 248.44 101.97
  Q 248.06 101.68 247.76 102.06
  Q 246.35 103.93 245.06 105.85
  Q 244.46 106.73 243.67 106.31
  A 0.93 0.93 0.0 0 0 242.39 107.51
  C 244.60 112.41 248.40 118.70 248.71 124.08
  Q 248.90 127.52 248.66 131.11"
/>
<path stroke="#a1793b" vector-effect="non-scaling-stroke" d="
  M 273.90 95.98
  Q 276.50 105.11 272.31 112.30
  Q 266.18 122.85 263.29 130.20
  A 0.74 0.74 0.0 0 1 262.65 130.67
  L 256.73 130.96
  Q 256.37 130.98 256.39 130.62
  C 256.58 126.99 255.94 123.21 257.38 119.81
  Q 260.46 112.56 263.68 105.32
  Q 263.89 104.85 263.68 104.38
  C 262.88 102.60 259.63 101.23 258.42 103.45
  Q 257.35 105.42 256.24 106.69
  Q 255.82 107.17 255.37 106.72
  L 249.54 100.97
  A 1.60 1.60 0.0 0 0 247.04 101.29
  L 244.63 105.30
  A 0.63 0.63 0.0 0 1 243.69 105.47
  Q 243.29 105.14 242.51 105.30
  A 1.57 1.56 -18.5 0 0 241.41 107.49
  Q 244.26 113.59 246.72 119.70
  C 248.24 123.49 247.70 126.81 247.53 130.70"
/>
<path stroke="#5b5c5c" stroke-opacity="0.996" vector-effect="non-scaling-stroke" d="
  M 220.24 277.09
  L 166.21 277.03
  A 0.24 0.24 0.0 0 1 166.11 276.58
  Q 176.98 271.35 178.51 259.23"
/>
<path stroke="#999999" vector-effect="non-scaling-stroke" d="
  M 195.35 145.89
  L 206.11 156.68
  Q 206.67 157.25 207.21 156.66
  L 208.71 155.00
  A 0.82 0.80 44.0 0 0 208.68 153.89
  L 198.11 143.14
  A 1.81 1.80 37.8 0 1 197.83 140.98
  C 206.36 126.24 182.18 114.68 175.99 130.49
  C 171.89 140.96 183.10 151.08 193.04 145.56
  A 1.93 1.93 0.0 0 1 195.35 145.89"
/>
<path stroke="#999999" vector-effect="non-scaling-stroke" d="
  M 152.84 138.98
  L 137.67 175.23
  A 0.79 0.79 0.0 0 0 138.10 176.27
  L 138.99 176.64
  A 2.04 1.76 22.7 0 0 141.55 175.81
  L 155.97 141.34
  A 2.04 1.76 22.7 0 0 154.77 138.93
  L 153.87 138.55
  A 0.79 0.79 0.0 0 0 152.84 138.98"
/>
<path stroke="#999999" vector-effect="non-scaling-stroke" d="
  M 121.60 157.59
  Q 126.75 153.90 132.08 150.45
  C 133.92 149.25 134.26 147.58 133.43 145.68
  Q 133.19 145.14 132.69 145.47
  L 118.21 155.23
  A 3.24 3.23 45.1 0 0 118.20 160.59
  L 132.34 170.18
  A 0.84 0.83 -64.0 0 0 133.61 169.74
  C 134.32 167.45 133.48 166.34 131.55 165.09
  Q 126.49 161.82 121.60 158.33
  Q 121.09 157.96 121.60 157.59"
/>
<path stroke="#999999" vector-effect="non-scaling-stroke" d="
  M 172.22 158.48
  L 160.65 166.31
  Q 160.21 166.61 160.23 167.13
  L 160.30 169.96
  Q 160.33 171.06 161.25 170.44
  L 175.92 160.50
  A 3.09 3.09 0.0 0 0 175.92 155.38
  L 161.40 145.59
  A 0.65 0.65 0.0 0 0 160.42 145.93
  C 159.71 148.09 160.22 149.48 162.19 150.70
  Q 167.40 153.92 172.25 157.62
  A 0.53 0.53 0.0 0 1 172.22 158.48"
/>
<path stroke="#a1793b" vector-effect="non-scaling-stroke" d="
  M 271.81 101.25
  C 270.75 90.36 263.10 82.66 251.94 82.28
  A 0.50 0.50 0.0 0 0 251.50 83.04
  Q 251.93 83.72 252.75 83.77
  C 262.58 84.43 270.78 92.27 270.77 102.32
  A 0.44 0.44 0.0 0 0 271.60 102.54
  Q 271.89 102.03 271.81 101.25"
/>
<path stroke="#96938c" vector-effect="non-scaling-stroke" d="
  M 272.85 114.00
  L 267.74 122.46
  Q 267.30 123.19 268.15 123.20
  Q 276.89 123.34 285.60 123.26
  C 288.55 123.24 290.36 123.74 290.41 127.00
  Q 290.86 162.48 290.38 197.95
  A 0.33 0.33 0.0 0 0 290.94 198.18
  L 298.93 190.19
  A 5.22 5.21 -22.4 0 0 300.47 186.49
  Q 300.59 156.67 300.47 126.03
  C 300.40 109.77 284.49 113.54 274.00 113.36
  Q 273.24 113.35 272.85 114.00"
/>
<path stroke="#a1793b" vector-effect="non-scaling-stroke" d="
  M 287.35 203.13
  C 285.21 205.29 283.24 205.32 280.49 204.63
  Q 280.02 204.51 279.70 204.15
  C 277.94 202.13 274.98 198.71 272.20 198.60
  C 268.03 198.45 266.20 203.27 268.85 206.41
  Q 271.03 209.01 278.72 216.23
  C 281.55 218.88 283.78 219.65 286.75 216.75
  Q 298.97 204.84 310.91 192.67
  C 316.19 187.29 310.03 180.82 304.86 185.88
  Q 291.78 198.67 287.35 203.13"
/>
<path stroke="#a1793b" vector-effect="non-scaling-stroke" d="
  M 110.66 212.25
  C 128.34 221.12 134.35 244.37 120.63 259.96
  C 105.09 277.62 76.91 272.85 68.43 250.60
  Q 62.27 234.42 74.20 219.05
  Q 74.54 218.62 74.15 218.23
  L 69.75 213.89
  Q 68.97 213.12 68.28 213.97
  C 45.16 242.24 66.89 284.05 103.45 278.09
  C 128.49 274.00 142.56 248.23 132.81 224.83
  C 122.62 200.38 90.52 193.39 70.79 211.52
  Q 70.44 211.84 70.79 212.17
  L 75.58 216.79
  Q 75.84 217.04 76.12 216.83
  Q 94.13 203.95 110.66 212.25"
/>
<path stroke="#96938c" vector-effect="non-scaling-stroke" d="
  M 289.09 228.37
  C 288.65 228.68 287.89 229.02 287.25 229.02
  C 237.24 228.99 187.20 229.28 137.17 228.95
  A 0.46 0.46 0.0 0 0 136.72 229.53
  Q 140.34 243.92 133.99 257.19
  Q 133.79 257.59 134.24 257.59
  C 162.97 257.40 191.71 257.77 220.44 257.52
  C 241.44 257.33 262.43 257.95 283.42 257.46
  C 292.79 257.24 299.95 257.40 300.56 245.58
  C 301.28 231.65 300.40 218.79 300.57 205.51
  A 0.32 0.32 0.0 0 0 300.02 205.28
  L 290.93 214.48
  Q 290.50 214.91 290.50 215.53
  L 290.50 225.75
  A 3.43 3.09 -19.7 0 1 289.09 228.37"
/>
<path stroke="#96938c" vector-effect="non-scaling-stroke" d="
  M 78.21 248.35
  Q 73.13 237.53 81.26 226.13
  Q 81.57 225.69 81.19 225.31
  L 76.66 220.78
  Q 76.20 220.32 75.77 220.81
  C 52.29 247.63 88.71 284.55 115.81 261.78
  C 130.70 249.27 128.82 225.65 112.41 215.64
  C 101.17 208.79 88.06 209.93 77.99 218.40
  Q 77.60 218.73 77.96 219.08
  L 82.79 223.92
  A 0.64 0.64 0.0 0 0 83.64 223.96
  C 93.38 216.00 107.80 217.73 114.73 228.44
  C 122.92 241.11 115.46 258.04 100.58 260.46
  C 90.91 262.03 82.36 257.20 78.21 248.35"
/>
<path stroke="#a1793b" vector-effect="non-scaling-stroke" d="
  M 89.73 226.08
  A 1.42 1.42 0.0 0 1 92.09 226.61
  L 92.89 228.95
  Q 93.08 229.49 93.63 229.38
  Q 102.55 227.67 106.49 234.31
  C 113.70 246.44 96.40 257.47 88.25 246.17
  Q 85.21 241.95 86.70 236.03
  A 0.55 0.55 0.0 0 0 86.32 235.36
  L 82.89 234.38
  Q 81.87 234.08 82.62 233.33
  L 85.46 230.49
  A 0.50 0.50 0.0 0 0 85.49 229.82
  L 83.68 227.58
  A 0.50 0.50 0.0 0 0 82.90 227.58
  C 77.26 234.75 76.85 243.81 82.09 251.19
  C 87.79 259.21 100.18 261.03 107.92 255.40
  C 128.67 240.32 106.12 209.60 85.24 225.40
  A 0.60 0.59 49.1 0 0 85.18 226.30
  L 86.88 228.00
  Q 87.38 228.51 87.88 227.99
  L 89.73 226.08"
/>
<path stroke="#96938c" vector-effect="non-scaling-stroke" d="
  M 94.28 238.12
  L 89.55 236.63
  A 0.50 0.49 17.9 0 0 88.93 236.94
  C 86.74 243.25 91.95 249.59 98.38 248.60
  C 109.80 246.85 108.29 230.64 95.40 231.00
  A 1.35 1.35 0.0 0 0 94.16 232.74
  L 95.46 236.95
  A 0.94 0.94 0.0 0 1 94.28 238.12"
/>
<path stroke="#999999" vector-effect="non-scaling-stroke" d="
  M 195.46 134.93
  A 8.11 8.11 0.0 0 0 187.35 126.82
  A 8.11 8.11 0.0 0 0 179.24 134.93
  A 8.11 8.11 0.0 0 0 187.35 143.04
  A 8.11 8.11 0.0 0 0 195.46 134.93"
/>
<path stroke="#118580" vector-effect="non-scaling-stroke" d="
  M 264.3305 136.3916
  A 2.00 2.00 0.0 0 0 262.3340 134.3881
  L 241.6140 134.3519
  A 2.00 2.00 0.0 0 0 239.6105 136.3484
  L 239.6095 136.9484
  A 2.00 2.00 0.0 0 0 241.6060 138.9519
  L 262.3260 138.9881
  A 2.00 2.00 0.0 0 0 264.3295 136.9916
  L 264.3305 136.3916"
/>
<path stroke="#118580" vector-effect="non-scaling-stroke" d="
  M 258.03 141.57
  Q 257.96 141.29 257.75 141.29
  Q 250.21 141.23 242.63 141.26
  Q 242.11 141.26 241.73 141.62
  Q 240.94 142.40 240.90 143.54
  C 240.80 146.14 244.06 146.55 245.94 146.14
  A 0.67 0.67 0.0 0 1 246.75 146.79
  L 246.75 147.56
  A 0.74 0.73 9.5 0 0 247.25 148.25
  C 249.15 148.90 257.27 150.39 257.33 146.42
  Q 257.34 145.84 257.90 145.97
  C 260.27 146.52 264.22 145.80 262.62 142.29
  Q 262.38 141.75 261.78 141.75
  L 258.26 141.75
  A 0.24 0.23 -6.1 0 1 258.03 141.57"
/>
<path stroke="#73c6c1" vector-effect="non-scaling-stroke" d="
  M 231.96 174.50
  Q 232.45 174.70 232.34 175.07"
/>
<path stroke="#118580" vector-effect="non-scaling-stroke" d="
  M 232.34 175.07
  Q 232.76 175.60 233.58 175.92
  Q 234.09 176.11 234.26 176.62
  L 235.43 180.10"
/>
<path stroke="#73c6c1" vector-effect="non-scaling-stroke" d="
  M 235.43 180.10
  L 234.75 180.29"
/>
<path stroke="#025651" stroke-opacity="0.996" vector-effect="non-scaling-stroke" d="
  M 234.75 180.29
  Q 234.35 180.44 234.01 180.81"
/>
<path stroke="#73c6c1" vector-effect="non-scaling-stroke" d="
  M 234.01 180.81
  Q 233.34 180.02 232.96 180.59"
/>
<path stroke="#118580" vector-effect="non-scaling-stroke" d="
  M 232.96 180.59
  Q 232.95 179.90 233.17 179.36
  Q 233.30 179.06 232.98 179.08
  C 230.79 179.16 224.96 177.72 226.69 174.25
  A 0.97 0.97 0.0 0 0 225.86 172.86
  C 222.01 172.71 218.62 171.02 218.17 176.51
  A 0.68 0.68 0.0 0 1 217.70 177.11
  L 212.33 178.79
  A 0.42 0.42 0.0 0 1 211.85 178.63
  Q 210.86 177.23 209.12 177.17
  Q 208.49 177.15 208.04 177.60
  L 205.11 180.54
  Q 204.70 180.95 204.60 181.54
  L 204.27 183.58
  A 0.62 0.62 0.0 0 0 204.67 184.27
  C 206.95 185.12 204.69 189.01 204.25 190.32
  Q 203.84 191.56 202.54 191.39
  Q 199.77 191.02 199.72 192.84
  Q 199.64 195.84 199.77 198.85
  Q 199.79 199.37 200.19 199.68
  Q 201.33 200.57 202.59 200.05
  A 1.06 1.05 68.2 0 1 203.98 200.65
  L 206.00 206.09
  A 0.50 0.49 -20.2 0 1 205.70 206.73
  Q 203.43 207.54 204.02 209.49
  C 204.34 210.60 205.60 211.30 206.40 212.15
  C 208.10 213.96 209.93 215.04 211.78 212.69
  Q 212.08 212.31 212.54 212.46
  L 217.75 214.27
  Q 218.27 214.44 218.29 214.99
  L 218.37 217.26
  A 1.31 1.31 0.0 0 0 219.67 218.52
  L 225.29 218.58
  Q 226.11 218.59 226.32 217.79
  Q 227.58 212.89 232.82 212.33
  Q 233.27 212.28 233.36 212.72
  C 233.74 214.48 235.28 214.55 236.63 213.71
  C 238.65 212.44 243.25 208.10 238.92 206.56
  A 0.54 0.54 0.0 0 1 238.68 205.70
  Q 240.41 203.57 240.91 200.88
  Q 241.03 200.19 241.73 200.13
  L 243.98 199.92
  A 1.40 1.40 0.0 0 0 245.25 198.53
  L 245.25 193.19
  Q 245.25 192.68 244.90 192.31
  Q 243.67 191.00 241.98 191.74
  A 0.62 0.62 0.0 0 1 241.16 191.40
  Q 239.96 188.29 238.75 185.41
  Q 238.58 185.01 238.13 185.53"
/>
<path stroke="#73c6c1" vector-effect="non-scaling-stroke" d="
  M 238.13 185.53
  Q 237.72 184.87 236.90 184.60"
/>
<path stroke="#025651" stroke-opacity="0.996" vector-effect="non-scaling-stroke" d="
  M 236.90 184.60
  Q 237.06 184.24 237.00 184.04"
/>
<path stroke="#118580" vector-effect="non-scaling-stroke" d="
  M 237.00 184.04
  Q 237.32 183.81 237.65 183.67
  Q 237.96 183.54 238.35 183.64
  Q 241.69 184.51 242.67 187.71
  Q 242.85 188.30 243.47 188.22
  L 246.76 187.75
  A 0.83 0.81 2.5 0 0 247.44 187.14
  Q 248.21 183.99 251.07 184.91
  C 258.12 187.19 254.49 179.27 257.38 177.47
  C 259.60 176.08 260.88 175.61 259.83 172.72
  Q 259.65 172.23 259.15 172.10
  Q 256.79 171.46 256.76 168.84
  Q 256.76 168.44 256.87 168.06
  Q 257.90 164.65 254.61 163.11
  A 1.32 1.30 51.5 0 0 253.78 163.01
  Q 249.98 163.78 248.67 160.37
  Q 248.47 159.86 247.93 159.74
  Q 244.28 158.93 242.30 162.00
  A 1.72 1.67 -48.6 0 1 239.57 162.21
  Q 238.91 161.41 237.46 161.91
  C 236.15 162.36 234.89 164.07 234.52 165.26
  Q 234.19 166.29 235.01 166.48
  Q 235.50 166.59 235.36 167.07
  C 234.45 170.21 229.32 169.29 231.96 174.50"
/>
<path stroke="#133434" stroke-opacity="0.996" vector-effect="non-scaling-stroke" d="
  M 237.00 184.04
  Q 236.46 184.04 236.53 183.73"
/>
<path stroke="#83a4a4" vector-effect="non-scaling-stroke" d="
  M 236.53 183.73
  C 238.53 182.59 243.11 183.35 243.01 186.52
  A 0.65 0.64 7.6 0 0 243.51 187.17
  Q 246.24 187.84 246.91 185.70
  Q 247.05 185.24 247.43 184.96
  Q 249.93 183.06 252.60 184.46
  Q 253.01 184.67 253.43 184.48
  C 257.10 182.81 252.59 178.07 258.29 176.08
  Q 258.80 175.91 258.93 175.39
  Q 259.52 172.97 257.19 172.78
  A 0.87 0.85 -6.0 0 1 256.44 172.18
  L 255.37 168.78
  A 0.97 0.96 -34.9 0 1 255.53 167.90
  Q 257.08 165.88 254.86 164.54
  Q 254.48 164.31 254.05 164.43
  Q 249.61 165.60 247.72 161.32
  Q 247.54 160.91 247.10 160.81
  Q 245.05 160.38 244.37 162.16
  Q 244.13 162.78 243.52 163.03
  L 240.55 164.23
  A 1.01 1.01 0.0 0 1 239.54 164.08
  L 238.63 163.34
  A 0.74 0.74 0.0 0 0 237.77 163.28
  L 236.58 164.00
  A 0.52 0.52 0.0 0 0 236.46 164.12
  Q 235.52 165.45 236.53 166.38
  A 0.79 0.78 -54.9 0 1 236.69 167.30
  L 235.02 170.65
  Q 234.83 171.03 234.43 171.17
  Q 233.85 171.38 233.40 171.19
  Q 232.52 170.80 232.53 171.76
  Q 232.55 173.23 231.96 174.50"
/>
<path stroke="#757575" stroke-opacity="0.996" vector-effect="non-scaling-stroke" d="
  M 236.53 183.73
  Q 234.65 182.61 234.75 180.29"
/>
<path stroke="#83a4a4" vector-effect="non-scaling-stroke" d="
  M 235.43 180.10
  Q 235.95 177.75 234.32 175.43
  Q 233.60 174.40 232.34 175.07"
/>
<path stroke="#757575" stroke-opacity="0.996" vector-effect="non-scaling-stroke" d="
  M 234.01 180.81
  Q 234.45 183.66 236.90 184.60"
/>
<path stroke="#83a4a4" vector-effect="non-scaling-stroke" d="
  M 232.96 180.59
  C 230.99 179.67 224.87 178.18 225.94 175.30
  A 0.93 0.93 0.0 0 0 225.11 174.05
  L 220.34 173.88
  A 1.15 1.15 0.0 0 0 219.20 175.38
  C 220.10 178.16 214.68 179.65 212.83 180.52
  A 0.85 0.85 0.0 0 1 211.91 180.40
  L 209.82 178.60
  A 0.73 0.73 0.0 0 0 208.83 178.63
  L 205.26 182.14
  A 0.70 0.69 45.3 0 0 205.26 183.13
  L 206.93 184.81
  Q 207.33 185.20 207.13 185.73
  L 204.75 191.88
  A 0.98 0.97 10.5 0 1 203.84 192.50
  L 201.41 192.50
  A 0.65 0.65 0.0 0 0 200.76 193.15
  L 200.75 198.16
  Q 200.74 198.83 201.41 198.92
  L 203.97 199.26
  Q 204.58 199.34 204.79 199.92
  L 207.05 205.96
  A 0.59 0.57 56.3 0 1 206.94 206.56
  L 205.24 208.43
  A 0.51 0.50 -40.8 0 0 205.19 209.04
  Q 205.93 210.21 207.05 210.97
  Q 207.55 211.30 207.78 211.85
  Q 208.48 213.48 210.19 212.80
  Q 210.61 212.64 210.80 212.23
  Q 211.52 210.66 213.07 211.39
  Q 215.76 212.66 218.63 213.60
  Q 219.22 213.80 219.23 214.43
  L 219.26 216.56
  A 1.26 1.25 88.4 0 0 220.56 217.80
  L 224.79 217.64
  Q 225.46 217.61 225.62 216.95
  L 226.21 214.40
  Q 226.34 213.83 226.88 213.61
  L 232.76 211.24
  A 0.69 0.69 0.0 0 1 233.54 211.41
  L 234.69 212.62
  A 1.40 1.39 -44.3 0 0 236.70 212.64
  L 239.96 209.35
  A 0.50 0.50 0.0 0 0 239.98 208.66
  L 238.11 206.62
  A 0.72 0.71 34.7 0 1 237.97 205.88
  L 240.56 199.44
  A 0.41 0.40 7.8 0 1 240.91 199.18
  L 243.92 198.94
  A 0.61 0.60 87.4 0 0 244.47 198.33
  L 244.42 193.30
  A 0.76 0.75 2.1 0 0 243.73 192.56
  L 241.15 192.35
  Q 240.74 192.31 240.60 191.93
  L 238.13 185.53"
/>
<path stroke="#277a75" vector-effect="non-scaling-stroke" d="
  M 190.77 140.91
  C 200.56 133.48 186.03 122.06 181.44 132.10
  Q 181.14 132.74 181.85 132.76
  Q 183.31 132.80 186.03 132.54
  C 190.27 132.14 188.87 137.99 189.28 140.33
  Q 189.55 141.84 190.77 140.91"
/>
<path stroke="#83a4a4" vector-effect="non-scaling-stroke" d="
  M 263.68 136.63
  A 1.30 1.30 0.0 0 0 262.38 135.33
  L 241.88 135.33
  A 1.30 1.30 0.0 0 0 240.58 136.63
  L 240.58 136.69
  A 1.30 1.30 0.0 0 0 241.88 137.99
  L 262.38 137.99
  A 1.30 1.30 0.0 0 0 263.68 136.69
  L 263.68 136.63"
/>
<path stroke="#83a4a4" vector-effect="non-scaling-stroke" d="
  M 261.99 143.61
  A 1.29 1.29 0.0 0 0 260.70 142.32
  L 243.56 142.32
  A 1.29 1.29 0.0 0 0 242.27 143.61
  L 242.27 143.69
  A 1.29 1.29 0.0 0 0 243.56 144.98
  L 260.70 144.98
  A 1.29 1.29 0.0 0 0 261.99 143.69
  L 261.99 143.61"
/>
<path stroke="#83a4a4" vector-effect="non-scaling-stroke" d="
  M 256.4599 147.0424
  A 4.28 0.92 0.3 0 0 252.1848 146.1000
  A 4.28 0.92 0.3 0 0 247.9001 146.9976
  A 4.28 0.92 0.3 0 0 252.1752 147.9400
  A 4.28 0.92 0.3 0 0 256.4599 147.0424"
/>
<path stroke="#83a4a4" vector-effect="non-scaling-stroke" d="
  M 252.94 173.85
  A 7.38 7.38 0.0 0 0 245.56 166.47
  A 7.38 7.38 0.0 0 0 238.18 173.85
  A 7.38 7.38 0.0 0 0 245.56 181.23
  A 7.38 7.38 0.0 0 0 252.94 173.85"
/>
<path stroke="#118580" vector-effect="non-scaling-stroke" d="
  M 251.80 173.97
  A 6.31 6.31 0.0 0 0 245.49 167.66
  A 6.31 6.31 0.0 0 0 239.18 173.97
  A 6.31 6.31 0.0 0 0 245.49 180.28
  A 6.31 6.31 0.0 0 0 251.80 173.97"
/>
<path stroke="#83a4a4" vector-effect="non-scaling-stroke" d="
  M 234.35 195.70
  A 11.80 11.80 0.0 0 0 222.55 183.90
  A 11.80 11.80 0.0 0 0 210.75 195.70
  A 11.80 11.80 0.0 0 0 222.55 207.50
  A 11.80 11.80 0.0 0 0 234.35 195.70"
/>
<path stroke="#118580" vector-effect="non-scaling-stroke" d="
  M 233.52 195.92
  A 10.97 10.97 0.0 0 0 222.55 184.95
  A 10.97 10.97 0.0 0 0 211.58 195.92
  A 10.97 10.97 0.0 0 0 222.55 206.89
  A 10.97 10.97 0.0 0 0 233.52 195.92"
/>
<path stroke="#5b5c5c" stroke-opacity="0.996" vector-effect="non-scaling-stroke" d="
  M 202.51 278.56
  L 185.24 278.42"
/>
<path stroke="#757575" stroke-opacity="0.996" vector-effect="non-scaling-stroke" d="
  M 185.24 278.42
  Q 165.79 277.81 146.26 278.03
  C 142.64 278.07 139.92 279.08 141.85 283.37
  A 1.70 1.69 77.8 0 0 143.39 284.37
  L 242.82 284.49
  A 1.10 1.08 16.1 0 0 243.74 283.99
  Q 245.21 281.72 244.20 279.10
  Q 244.03 278.68 243.61 278.52
  Q 242.32 278.04 240.25 278.05
  Q 214.14 278.06 202.51 278.56"
/>
<path stroke="#cccccc" vector-effect="non-scaling-stroke" d="
  M 185.24 278.42
  Q 187.20 279.18 189.22 279.07"
/>
<path stroke="#96938c" vector-effect="non-scaling-stroke" d="
  M 189.22 279.07
  Q 194.66 279.93 200.17 279.15"
/>
<path stroke="#cccccc" vector-effect="non-scaling-stroke" d="
  M 200.17 279.15
  Q 201.14 279.21 202.51 278.56"
/>
<path stroke="#7d7a73" vector-effect="non-scaling-stroke" d="
  M 200.17 279.15
  Q 194.67 278.39 189.22 279.07"
/>
</g>
<path fill="#fbb043" d="
  M 108.46 111.50
  Q 107.95 111.94 108.47 112.61
  L 108.75 113.46
  Q 106.85 114.16 105.64 115.69
  C 103.28 118.68 102.06 119.88 99.18 121.77
  A 1.06 1.06 0.0 0 0 99.01 123.41
  Q 99.13 123.52 99.43 123.57
  Q 100.76 124.56 101.29 126.00
  L 102.90 130.26
  A 0.65 0.65 0.0 0 1 101.89 131.00
  L 99.04 128.77
  L 95.32 125.86
  Q 94.48 124.81 92.01 125.30
  Q 88.78 125.95 85.50 126.29
  L 84.16 126.24
  Q 74.81 125.91 67.36 122.38
  C 56.34 117.14 51.24 103.86 56.43 92.70
  C 68.05 67.71 111.60 73.60 110.82 102.92
  C 110.74 106.01 109.40 108.53 108.46 111.50
  Z
  M 73.97 102.12
  A 3.85 3.85 0.0 0 0 70.12 98.27
  A 3.85 3.85 0.0 0 0 66.27 102.12
  A 3.85 3.85 0.0 0 0 70.12 105.97
  A 3.85 3.85 0.0 0 0 73.97 102.12
  Z
  M 86.55 102.28
  A 4.09 4.09 0.0 0 0 82.46 98.19
  A 4.09 4.09 0.0 0 0 78.37 102.28
  A 4.09 4.09 0.0 0 0 82.46 106.37
  A 4.09 4.09 0.0 0 0 86.55 102.28
  Z
  M 99.0702 103.0843
  A 4.18 3.93 9.7 0 0 95.6122 98.5062
  A 4.18 3.93 9.7 0 0 90.8298 101.6757
  A 4.18 3.93 9.7 0 0 94.2878 106.2538
  A 4.18 3.93 9.7 0 0 99.0702 103.0843
  Z"
/>
<path fill="#4c4d4d" d="
  M 274.39 93.92
  Q 274.36 95.25 273.90 95.98
  Q 270.99 87.66 264.13 83.24
  C 250.54 74.50 231.86 82.86 229.69 99.18
  C 228.26 109.90 234.32 114.46 238.27 123.76
  Q 239.57 126.80 240.78 129.94
  Q 240.97 130.44 241.50 130.46
  L 247.53 130.70
  Q 247.33 131.36 247.76 131.45
  Q 248.46 131.59 248.66 131.11
  L 254.45 130.93
  Q 254.89 131.57 255.77 131.76
  L 240.69 131.90
  A 0.92 0.90 -12.1 0 1 239.84 131.36
  L 237.39 125.90
  A 1.04 1.03 -11.6 0 0 236.46 125.29
  L 197.72 125.17
  Q 197.18 125.16 197.48 125.62
  C 201.22 131.24 203.50 135.23 199.05 141.44
  A 0.81 0.81 0.0 0 0 199.05 142.36
  Q 199.70 143.27 200.77 143.63
  Q 201.27 143.80 201.64 144.16
  L 211.60 153.86
  A 0.47 0.47 0.0 0 1 211.58 154.54
  L 207.94 157.76
  A 1.07 1.07 0.0 0 1 207.00 158.00
  C 202.50 156.98 197.39 150.60 194.74 147.36
  Q 194.46 147.01 194.03 147.14
  L 189.84 148.35
  Q 189.26 148.52 189.24 149.13
  Q 188.79 168.89 189.03 177.00
  Q 189.12 179.72 188.52 181.66
  Q 188.32 182.33 187.61 182.33
  L 105.48 181.94
  Q 104.78 181.94 104.78 181.23
  L 104.73 135.44
  A 2.36 2.36 0.0 0 1 107.07 133.08
  L 173.11 132.74
  Q 173.58 132.73 173.80 132.31
  L 177.00 125.96
  Q 177.47 125.04 176.43 125.03
  L 103.72 124.70
  A 1.05 1.04 -65.7 0 0 103.02 124.97
  Q 102.22 125.69 101.29 126.00
  Q 100.76 124.56 99.43 123.57
  Q 100.15 123.20 100.75 123.20
  Q 138.91 122.98 177.06 123.26
  Q 180.22 123.28 184.01 122.30
  C 188.38 121.17 191.90 122.98 195.93 122.99
  Q 215.72 123.05 235.64 122.98
  Q 236.55 122.98 236.09 122.19
  L 231.27 113.97
  Q 230.97 113.47 230.38 113.47
  L 111.01 113.32
  Q 109.97 112.57 108.47 112.61
  Q 107.95 111.94 108.46 111.50
  Q 108.61 112.56 110.00 112.55
  C 149.83 112.02 189.76 113.20 229.54 112.18
  A 0.63 0.63 0.0 0 0 230.14 111.41
  C 228.86 105.70 228.20 99.18 230.17 93.66
  C 237.37 73.53 266.63 73.94 274.39 93.92
  Z
  M 195.35 145.89
  L 206.11 156.68
  Q 206.67 157.25 207.21 156.66
  L 208.71 155.00
  A 0.82 0.80 44.0 0 0 208.68 153.89
  L 198.11 143.14
  A 1.81 1.80 37.8 0 1 197.83 140.98
  C 206.36 126.24 182.18 114.68 175.99 130.49
  C 171.89 140.96 183.10 151.08 193.04 145.56
  A 1.93 1.93 0.0 0 1 195.35 145.89
  Z
  M 152.84 138.98
  L 137.67 175.23
  A 0.79 0.79 0.0 0 0 138.10 176.27
  L 138.99 176.64
  A 2.04 1.76 22.7 0 0 141.55 175.81
  L 155.97 141.34
  A 2.04 1.76 22.7 0 0 154.77 138.93
  L 153.87 138.55
  A 0.79 0.79 0.0 0 0 152.84 138.98
  Z
  M 121.60 157.59
  Q 126.75 153.90 132.08 150.45
  C 133.92 149.25 134.26 147.58 133.43 145.68
  Q 133.19 145.14 132.69 145.47
  L 118.21 155.23
  A 3.24 3.23 45.1 0 0 118.20 160.59
  L 132.34 170.18
  A 0.84 0.83 -64.0 0 0 133.61 169.74
  C 134.32 167.45 133.48 166.34 131.55 165.09
  Q 126.49 161.82 121.60 158.33
  Q 121.09 157.96 121.60 157.59
  Z
  M 172.22 158.48
  L 160.65 166.31
  Q 160.21 166.61 160.23 167.13
  L 160.30 169.96
  Q 160.33 171.06 161.25 170.44
  L 175.92 160.50
  A 3.09 3.09 0.0 0 0 175.92 155.38
  L 161.40 145.59
  A 0.65 0.65 0.0 0 0 160.42 145.93
  C 159.71 148.09 160.22 149.48 162.19 150.70
  Q 167.40 153.92 172.25 157.62
  A 0.53 0.53 0.0 0 1 172.22 158.48
  Z"
/>
<path fill="#fbb043" d="
  M 273.90 95.98
  Q 276.50 105.11 272.31 112.30
  Q 266.18 122.85 263.29 130.20
  A 0.74 0.74 0.0 0 1 262.65 130.67
  L 256.73 130.96
  Q 256.37 130.98 256.39 130.62
  C 256.58 126.99 255.94 123.21 257.38 119.81
  Q 260.46 112.56 263.68 105.32
  Q 263.89 104.85 263.68 104.38
  C 262.88 102.60 259.63 101.23 258.42 103.45
  Q 257.35 105.42 256.24 106.69
  Q 255.82 107.17 255.37 106.72
  L 249.54 100.97
  A 1.60 1.60 0.0 0 0 247.04 101.29
  L 244.63 105.30
  A 0.63 0.63 0.0 0 1 243.69 105.47
  Q 243.29 105.14 242.51 105.30
  A 1.57 1.56 -18.5 0 0 241.41 107.49
  Q 244.26 113.59 246.72 119.70
  C 248.24 123.49 247.70 126.81 247.53 130.70
  L 241.50 130.46
  Q 240.97 130.44 240.78 129.94
  Q 239.57 126.80 238.27 123.76
  C 234.32 114.46 228.26 109.90 229.69 99.18
  C 231.86 82.86 250.54 74.50 264.13 83.24
  Q 270.99 87.66 273.90 95.98
  Z
  M 271.81 101.25
  C 270.75 90.36 263.10 82.66 251.94 82.28
  A 0.50 0.50 0.0 0 0 251.50 83.04
  Q 251.93 83.72 252.75 83.77
  C 262.58 84.43 270.78 92.27 270.77 102.32
  A 0.44 0.44 0.0 0 0 271.60 102.54
  Q 271.89 102.03 271.81 101.25
  Z"
/>
<ellipse fill="#474133" cx="0.00" cy="0.00" transform="translate(220.33,84.07) rotate(30.3)" rx="4.64" ry="0.57"/>
<path fill="#474133" d="
  M 251.94 82.28
  C 263.10 82.66 270.75 90.36 271.81 101.25
  Q 271.89 102.03 271.60 102.54
  A 0.44 0.44 0.0 0 1 270.77 102.32
  C 270.78 92.27 262.58 84.43 252.75 83.77
  Q 251.93 83.72 251.50 83.04
  A 0.50 0.50 0.0 0 1 251.94 82.28
  Z"
/>
<path fill="#474133" d="
  M 274.39 93.92
  Q 276.76 102.67 274.32 110.94
  A 1.12 1.11 6.5 0 0 275.46 112.37
  C 281.08 112.01 292.47 111.27 297.01 114.77
  C 301.31 118.07 301.21 123.06 301.25 128.06
  Q 301.52 157.53 301.52 185.33
  Q 301.52 188.58 303.53 186.02
  C 308.45 179.77 317.96 185.81 312.15 192.42
  C 309.18 195.80 301.46 201.36 301.47 205.81
  Q 301.53 221.26 301.47 236.70
  C 301.41 252.57 301.04 258.38 283.88 258.25
  Q 246.93 257.95 209.91 258.25
  A 1.40 1.40 0.0 0 0 208.54 259.84
  Q 210.20 271.92 222.04 276.38
  L 220.24 277.09
  Q 209.42 271.39 207.40 260.08
  A 0.52 0.50 62.6 0 1 207.53 259.65
  Q 208.05 259.12 206.57 258.80
  Q 206.08 258.69 205.58 258.68
  Q 192.26 258.26 178.94 258.66
  Q 178.66 258.66 178.52 258.92
  Q 178.44 259.07 178.51 259.23
  L 177.79 259.25
  Q 176.84 258.19 174.43 258.35
  Q 158.35 259.41 134.69 258.15
  Q 133.39 258.08 132.53 259.48
  Q 118.51 282.32 92.32 279.65
  C 76.08 277.99 63.16 266.78 58.33 251.32
  Q 51.85 230.56 67.09 212.60
  A 1.22 1.21 43.0 0 0 67.03 210.97
  L 56.37 200.21
  A 4.35 4.33 66.3 0 0 53.11 198.93
  L 41.58 199.36
  A 0.86 0.85 -22.3 0 1 40.94 199.10
  L 27.54 185.23
  A 0.97 0.97 0.0 0 1 28.23 183.59
  L 39.30 183.47
  A 1.33 1.32 1.1 0 0 40.62 182.21
  L 41.19 170.71
  A 0.88 0.88 0.0 0 1 42.69 170.13
  Q 46.73 174.15 50.73 178.43
  C 51.95 179.74 54.89 181.77 56.07 184.20
  C 58.11 188.38 54.76 196.68 57.81 199.45
  Q 63.38 204.51 68.01 209.88
  A 1.06 1.06 0.0 0 0 69.48 210.01
  Q 76.02 204.67 83.76 201.29
  Q 84.27 201.07 84.27 200.51
  Q 84.15 185.90 84.54 175.76
  C 84.71 171.22 84.29 166.07 84.29 162.67
  Q 84.27 144.50 84.16 126.24
  L 85.50 126.29
  L 85.56 200.04
  Q 85.56 200.46 85.98 200.40
  L 94.81 198.93
  Q 95.30 198.85 95.30 198.35
  L 95.32 125.86
  L 99.04 128.77
  Q 98.03 128.78 97.47 129.21
  Q 96.98 129.58 96.98 130.58
  Q 97.26 164.43 97.26 198.28
  Q 97.26 198.75 97.73 198.78
  Q 125.81 200.71 136.08 226.57
  Q 136.28 227.07 136.82 227.17
  Q 139.14 227.58 141.50 227.52
  C 156.93 227.19 173.85 227.74 187.75 227.75
  Q 236.27 227.77 285.84 227.65
  Q 289.00 227.65 289.00 224.49
  L 289.00 217.51
  Q 289.00 216.93 288.50 217.22
  C 287.22 217.97 286.41 219.24 285.11 219.66
  Q 281.43 220.86 278.30 217.71
  Q 273.24 212.62 268.20 207.56
  C 264.19 203.54 266.64 196.96 272.15 197.47
  C 279.46 198.14 280.97 211.49 289.86 198.83
  Q 290.06 198.55 289.77 198.38
  Q 289.45 198.18 289.46 197.69
  Q 289.54 190.78 289.31 183.89
  C 288.74 167.04 289.00 150.15 289.02 133.29
  C 289.02 131.32 289.56 128.43 288.91 125.76
  Q 288.78 125.26 288.28 125.13
  C 282.31 123.61 273.70 124.46 267.45 124.84
  Q 266.86 124.88 266.64 125.43
  L 264.37 131.19
  Q 264.16 131.72 263.60 131.72
  L 255.77 131.76
  Q 254.89 131.57 254.45 130.93
  Q 254.81 131.08 255.03 130.88
  Q 255.18 130.76 255.21 130.42
  C 255.57 126.70 255.01 122.99 256.45 119.51
  Q 259.37 112.42 262.36 105.80
  A 1.69 1.69 0.0 0 0 259.63 103.90
  C 258.13 105.39 256.62 110.37 253.74 106.99
  Q 251.37 104.22 248.44 101.97
  Q 248.06 101.68 247.76 102.06
  Q 246.35 103.93 245.06 105.85
  Q 244.46 106.73 243.67 106.31
  A 0.93 0.93 0.0 0 0 242.39 107.51
  C 244.60 112.41 248.40 118.70 248.71 124.08
  Q 248.90 127.52 248.66 131.11
  Q 248.46 131.59 247.76 131.45
  Q 247.33 131.36 247.53 130.70
  C 247.70 126.81 248.24 123.49 246.72 119.70
  Q 244.26 113.59 241.41 107.49
  A 1.57 1.56 -18.5 0 1 242.51 105.30
  Q 243.29 105.14 243.69 105.47
  A 0.63 0.63 0.0 0 0 244.63 105.30
  L 247.04 101.29
  A 1.60 1.60 0.0 0 1 249.54 100.97
  L 255.37 106.72
  Q 255.82 107.17 256.24 106.69
  Q 257.35 105.42 258.42 103.45
  C 259.63 101.23 262.88 102.60 263.68 104.38
  Q 263.89 104.85 263.68 105.32
  Q 260.46 112.56 257.38 119.81
  C 255.94 123.21 256.58 126.99 256.39 130.62
  Q 256.37 130.98 256.73 130.96
  L 262.65 130.67
  A 0.74 0.74 0.0 0 0 263.29 130.20
  Q 266.18 122.85 272.31 112.30
  Q 276.50 105.11 273.90 95.98
  Q 274.36 95.25 274.39 93.92
  Z
  M 272.85 114.00
  L 267.74 122.46
  Q 267.30 123.19 268.15 123.20
  Q 276.89 123.34 285.60 123.26
  C 288.55 123.24 290.36 123.74 290.41 127.00
  Q 290.86 162.48 290.38 197.95
  A 0.33 0.33 0.0 0 0 290.94 198.18
  L 298.93 190.19
  A 5.22 5.21 -22.4 0 0 300.47 186.49
  Q 300.59 156.67 300.47 126.03
  C 300.40 109.77 284.49 113.54 274.00 113.36
  Q 273.24 113.35 272.85 114.00
  Z
  M 46.30 176.06
  C 45.48 175.23 44.54 173.82 43.04 173.46
  Q 42.39 173.30 42.37 173.97
  C 42.28 178.60 41.15 185.13 46.45 187.36
  A 0.72 0.72 0.0 0 0 47.45 186.77
  C 47.77 183.72 48.64 178.42 46.30 176.06
  Z
  M 52.27 182.09
  Q 51.46 181.12 50.29 180.72
  A 0.53 0.53 0.0 0 0 49.59 181.16
  C 49.03 185.79 48.59 192.68 53.95 194.83
  Q 54.54 195.07 54.66 194.45
  C 55.25 191.49 55.80 184.35 52.76 182.50
  A 2.18 1.99 -2.5 0 1 52.27 182.09
  Z
  M 287.35 203.13
  C 285.21 205.29 283.24 205.32 280.49 204.63
  Q 280.02 204.51 279.70 204.15
  C 277.94 202.13 274.98 198.71 272.20 198.60
  C 268.03 198.45 266.20 203.27 268.85 206.41
  Q 271.03 209.01 278.72 216.23
  C 281.55 218.88 283.78 219.65 286.75 216.75
  Q 298.97 204.84 310.91 192.67
  C 316.19 187.29 310.03 180.82 304.86 185.88
  Q 291.78 198.67 287.35 203.13
  Z
  M 44.83 188.79
  C 41.39 184.40 37.21 184.41 32.20 185.57
  Q 30.86 185.88 31.62 187.03
  C 34.74 191.75 39.13 190.50 44.00 190.50
  A 1.06 1.06 0.0 0 0 44.83 188.79
  Z
  M 38.68 194.47
  C 40.34 195.93 40.96 197.08 43.36 197.20
  Q 47.21 197.40 50.72 197.79
  A 1.22 1.21 -14.0 0 0 51.86 195.90
  C 48.81 191.41 44.09 191.41 39.31 192.25
  A 1.28 1.28 0.0 0 0 38.68 194.47
  Z
  M 110.66 212.25
  C 128.34 221.12 134.35 244.37 120.63 259.96
  C 105.09 277.62 76.91 272.85 68.43 250.60
  Q 62.27 234.42 74.20 219.05
  Q 74.54 218.62 74.15 218.23
  L 69.75 213.89
  Q 68.97 213.12 68.28 213.97
  C 45.16 242.24 66.89 284.05 103.45 278.09
  C 128.49 274.00 142.56 248.23 132.81 224.83
  C 122.62 200.38 90.52 193.39 70.79 211.52
  Q 70.44 211.84 70.79 212.17
  L 75.58 216.79
  Q 75.84 217.04 76.12 216.83
  Q 94.13 203.95 110.66 212.25
  Z
  M 289.09 228.37
  C 288.65 228.68 287.89 229.02 287.25 229.02
  C 237.24 228.99 187.20 229.28 137.17 228.95
  A 0.46 0.46 0.0 0 0 136.72 229.53
  Q 140.34 243.92 133.99 257.19
  Q 133.79 257.59 134.24 257.59
  C 162.97 257.40 191.71 257.77 220.44 257.52
  C 241.44 257.33 262.43 257.95 283.42 257.46
  C 292.79 257.24 299.95 257.40 300.56 245.58
  C 301.28 231.65 300.40 218.79 300.57 205.51
  A 0.32 0.32 0.0 0 0 300.02 205.28
  L 290.93 214.48
  Q 290.50 214.91 290.50 215.53
  L 290.50 225.75
  A 3.43 3.09 -19.7 0 1 289.09 228.37
  Z
  M 78.21 248.35
  Q 73.13 237.53 81.26 226.13
  Q 81.57 225.69 81.19 225.31
  L 76.66 220.78
  Q 76.20 220.32 75.77 220.81
  C 52.29 247.63 88.71 284.55 115.81 261.78
  C 130.70 249.27 128.82 225.65 112.41 215.64
  C 101.17 208.79 88.06 209.93 77.99 218.40
  Q 77.60 218.73 77.96 219.08
  L 82.79 223.92
  A 0.64 0.64 0.0 0 0 83.64 223.96
  C 93.38 216.00 107.80 217.73 114.73 228.44
  C 122.92 241.11 115.46 258.04 100.58 260.46
  C 90.91 262.03 82.36 257.20 78.21 248.35
  Z
  M 89.73 226.08
  A 1.42 1.42 0.0 0 1 92.09 226.61
  L 92.89 228.95
  Q 93.08 229.49 93.63 229.38
  Q 102.55 227.67 106.49 234.31
  C 113.70 246.44 96.40 257.47 88.25 246.17
  Q 85.21 241.95 86.70 236.03
  A 0.55 0.55 0.0 0 0 86.32 235.36
  L 82.89 234.38
  Q 81.87 234.08 82.62 233.33
  L 85.46 230.49
  A 0.50 0.50 0.0 0 0 85.49 229.82
  L 83.68 227.58
  A 0.50 0.50 0.0 0 0 82.90 227.58
  C 77.26 234.75 76.85 243.81 82.09 251.19
  C 87.79 259.21 100.18 261.03 107.92 255.40
  C 128.67 240.32 106.12 209.60 85.24 225.40
  A 0.60 0.59 49.1 0 0 85.18 226.30
  L 86.88 228.00
  Q 87.38 228.51 87.88 227.99
  L 89.73 226.08
  Z
  M 94.28 238.12
  L 89.55 236.63
  A 0.50 0.49 17.9 0 0 88.93 236.94
  C 86.74 243.25 91.95 249.59 98.38 248.60
  C 109.80 246.85 108.29 230.64 95.40 231.00
  A 1.35 1.35 0.0 0 0 94.16 232.74
  L 95.46 236.95
  A 0.94 0.94 0.0 0 1 94.28 238.12
  Z"
/>
<path fill="#e98a20" d="
  M 254.45 130.93
  L 248.66 131.11
  Q 248.90 127.52 248.71 124.08
  C 248.40 118.70 244.60 112.41 242.39 107.51
  A 0.93 0.93 0.0 0 1 243.67 106.31
  Q 244.46 106.73 245.06 105.85
  Q 246.35 103.93 247.76 102.06
  Q 248.06 101.68 248.44 101.97
  Q 251.37 104.22 253.74 106.99
  C 256.62 110.37 258.13 105.39 259.63 103.90
  A 1.69 1.69 0.0 0 1 262.36 105.80
  Q 259.37 112.42 256.45 119.51
  C 255.01 122.99 255.57 126.70 255.21 130.42
  Q 255.18 130.76 255.03 130.88
  Q 254.81 131.08 254.45 130.93
  Z"
/>
<path fill="#b2b2b2" d="
  M 108.47 112.61
  Q 109.97 112.57 111.01 113.32
  L 108.75 113.46
  L 108.47 112.61
  Z"
/>
<path fill="#e5e5e5" d="
  M 111.01 113.32
  L 230.38 113.47
  Q 230.97 113.47 231.27 113.97
  L 236.09 122.19
  Q 236.55 122.98 235.64 122.98
  Q 215.72 123.05 195.93 122.99
  C 191.90 122.98 188.38 121.17 184.01 122.30
  Q 180.22 123.28 177.06 123.26
  Q 138.91 122.98 100.75 123.20
  Q 100.15 123.20 99.43 123.57
  Q 99.13 123.52 99.01 123.41
  A 1.06 1.06 0.0 0 1 99.18 121.77
  C 102.06 119.88 103.28 118.68 105.64 115.69
  Q 106.85 114.16 108.75 113.46
  L 111.01 113.32
  Z"
/>
<path fill="#e5e5e5" d="
  M 272.85 114.00
  Q 273.24 113.35 274.00 113.36
  C 284.49 113.54 300.40 109.77 300.47 126.03
  Q 300.59 156.67 300.47 186.49
  A 5.22 5.21 -22.4 0 1 298.93 190.19
  L 290.94 198.18
  A 0.33 0.33 0.0 0 1 290.38 197.95
  Q 290.86 162.48 290.41 127.00
  C 290.36 123.74 288.55 123.24 285.60 123.26
  Q 276.89 123.34 268.15 123.20
  Q 267.30 123.19 267.74 122.46
  L 272.85 114.00
  Z"
/>
<path fill="#e5e5e5" d="
  M 195.35 145.89
  A 1.93 1.93 0.0 0 0 193.04 145.56
  C 183.10 151.08 171.89 140.96 175.99 130.49
  C 182.18 114.68 206.36 126.24 197.83 140.98
  A 1.81 1.80 37.8 0 0 198.11 143.14
  L 208.68 153.89
  A 0.82 0.80 44.0 0 1 208.71 155.00
  L 207.21 156.66
  Q 206.67 157.25 206.11 156.68
  L 195.35 145.89
  Z
  M 195.46 134.93
  A 8.11 8.11 0.0 0 0 187.35 126.82
  A 8.11 8.11 0.0 0 0 179.24 134.93
  A 8.11 8.11 0.0 0 0 187.35 143.04
  A 8.11 8.11 0.0 0 0 195.46 134.93
  Z"
/>
<path fill="#01a79d" d="
  M 99.04 128.77
  L 101.89 131.00
  A 0.65 0.65 0.0 0 0 102.90 130.26
  L 101.29 126.00
  Q 102.22 125.69 103.02 124.97
  A 1.05 1.04 -65.7 0 1 103.72 124.70
  L 176.43 125.03
  Q 177.47 125.04 177.00 125.96
  L 173.80 132.31
  Q 173.58 132.73 173.11 132.74
  L 107.07 133.08
  A 2.36 2.36 0.0 0 0 104.73 135.44
  L 104.78 181.23
  Q 104.78 181.94 105.48 181.94
  L 187.61 182.33
  Q 188.32 182.33 188.52 181.66
  Q 189.12 179.72 189.03 177.00
  Q 188.79 168.89 189.24 149.13
  Q 189.26 148.52 189.84 148.35
  L 194.03 147.14
  Q 194.46 147.01 194.74 147.36
  C 197.39 150.60 202.50 156.98 207.00 158.00
  A 1.07 1.07 0.0 0 0 207.94 157.76
  L 211.58 154.54
  A 0.47 0.47 0.0 0 0 211.60 153.86
  L 201.64 144.16
  Q 201.27 143.80 200.77 143.63
  Q 199.70 143.27 199.05 142.36
  A 0.81 0.81 0.0 0 1 199.05 141.44
  C 203.50 135.23 201.22 131.24 197.48 125.62
  Q 197.18 125.16 197.72 125.17
  L 236.46 125.29
  A 1.04 1.03 -11.6 0 1 237.39 125.90
  L 239.84 131.36
  A 0.92 0.90 -12.1 0 0 240.69 131.90
  L 255.77 131.76
  L 263.60 131.72
  Q 264.16 131.72 264.37 131.19
  L 266.64 125.43
  Q 266.86 124.88 267.45 124.84
  C 273.70 124.46 282.31 123.61 288.28 125.13
  Q 288.78 125.26 288.91 125.76
  C 289.56 128.43 289.02 131.32 289.02 133.29
  C 289.00 150.15 288.74 167.04 289.31 183.89
  Q 289.54 190.78 289.46 197.69
  Q 289.45 198.18 289.77 198.38
  Q 290.06 198.55 289.86 198.83
  C 280.97 211.49 279.46 198.14 272.15 197.47
  C 266.64 196.96 264.19 203.54 268.20 207.56
  Q 273.24 212.62 278.30 217.71
  Q 281.43 220.86 285.11 219.66
  C 286.41 219.24 287.22 217.97 288.50 217.22
  Q 289.00 216.93 289.00 217.51
  L 289.00 224.49
  Q 289.00 227.65 285.84 227.65
  Q 236.27 227.77 187.75 227.75
  C 173.85 227.74 156.93 227.19 141.50 227.52
  Q 139.14 227.58 136.82 227.17
  Q 136.28 227.07 136.08 226.57
  Q 125.81 200.71 97.73 198.78
  Q 97.26 198.75 97.26 198.28
  Q 97.26 164.43 96.98 130.58
  Q 96.98 129.58 97.47 129.21
  Q 98.03 128.78 99.04 128.77
  Z
  M 264.3305 136.3916
  A 2.00 2.00 0.0 0 0 262.3340 134.3881
  L 241.6140 134.3519
  A 2.00 2.00 0.0 0 0 239.6105 136.3484
  L 239.6095 136.9484
  A 2.00 2.00 0.0 0 0 241.6060 138.9519
  L 262.3260 138.9881
  A 2.00 2.00 0.0 0 0 264.3295 136.9916
  L 264.3305 136.3916
  Z
  M 258.03 141.57
  Q 257.96 141.29 257.75 141.29
  Q 250.21 141.23 242.63 141.26
  Q 242.11 141.26 241.73 141.62
  Q 240.94 142.40 240.90 143.54
  C 240.80 146.14 244.06 146.55 245.94 146.14
  A 0.67 0.67 0.0 0 1 246.75 146.79
  L 246.75 147.56
  A 0.74 0.73 9.5 0 0 247.25 148.25
  C 249.15 148.90 257.27 150.39 257.33 146.42
  Q 257.34 145.84 257.90 145.97
  C 260.27 146.52 264.22 145.80 262.62 142.29
  Q 262.38 141.75 261.78 141.75
  L 258.26 141.75
  A 0.24 0.23 -6.1 0 1 258.03 141.57
  Z
  M 231.96 174.50
  Q 232.45 174.70 232.34 175.07
  Q 232.76 175.60 233.58 175.92
  Q 234.09 176.11 234.26 176.62
  L 235.43 180.10
  L 234.75 180.29
  Q 234.35 180.44 234.01 180.81
  Q 233.34 180.02 232.96 180.59
  Q 232.95 179.90 233.17 179.36
  Q 233.30 179.06 232.98 179.08
  C 230.79 179.16 224.96 177.72 226.69 174.25
  A 0.97 0.97 0.0 0 0 225.86 172.86
  C 222.01 172.71 218.62 171.02 218.17 176.51
  A 0.68 0.68 0.0 0 1 217.70 177.11
  L 212.33 178.79
  A 0.42 0.42 0.0 0 1 211.85 178.63
  Q 210.86 177.23 209.12 177.17
  Q 208.49 177.15 208.04 177.60
  L 205.11 180.54
  Q 204.70 180.95 204.60 181.54
  L 204.27 183.58
  A 0.62 0.62 0.0 0 0 204.67 184.27
  C 206.95 185.12 204.69 189.01 204.25 190.32
  Q 203.84 191.56 202.54 191.39
  Q 199.77 191.02 199.72 192.84
  Q 199.64 195.84 199.77 198.85
  Q 199.79 199.37 200.19 199.68
  Q 201.33 200.57 202.59 200.05
  A 1.06 1.05 68.2 0 1 203.98 200.65
  L 206.00 206.09
  A 0.50 0.49 -20.2 0 1 205.70 206.73
  Q 203.43 207.54 204.02 209.49
  C 204.34 210.60 205.60 211.30 206.40 212.15
  C 208.10 213.96 209.93 215.04 211.78 212.69
  Q 212.08 212.31 212.54 212.46
  L 217.75 214.27
  Q 218.27 214.44 218.29 214.99
  L 218.37 217.26
  A 1.31 1.31 0.0 0 0 219.67 218.52
  L 225.29 218.58
  Q 226.11 218.59 226.32 217.79
  Q 227.58 212.89 232.82 212.33
  Q 233.27 212.28 233.36 212.72
  C 233.74 214.48 235.28 214.55 236.63 213.71
  C 238.65 212.44 243.25 208.10 238.92 206.56
  A 0.54 0.54 0.0 0 1 238.68 205.70
  Q 240.41 203.57 240.91 200.88
  Q 241.03 200.19 241.73 200.13
  L 243.98 199.92
  A 1.40 1.40 0.0 0 0 245.25 198.53
  L 245.25 193.19
  Q 245.25 192.68 244.90 192.31
  Q 243.67 191.00 241.98 191.74
  A 0.62 0.62 0.0 0 1 241.16 191.40
  Q 239.96 188.29 238.75 185.41
  Q 238.58 185.01 238.13 185.53
  Q 237.72 184.87 236.90 184.60
  Q 237.06 184.24 237.00 184.04
  Q 237.32 183.81 237.65 183.67
  Q 237.96 183.54 238.35 183.64
  Q 241.69 184.51 242.67 187.71
  Q 242.85 188.30 243.47 188.22
  L 246.76 187.75
  A 0.83 0.81 2.5 0 0 247.44 187.14
  Q 248.21 183.99 251.07 184.91
  C 258.12 187.19 254.49 179.27 257.38 177.47
  C 259.60 176.08 260.88 175.61 259.83 172.72
  Q 259.65 172.23 259.15 172.10
  Q 256.79 171.46 256.76 168.84
  Q 256.76 168.44 256.87 168.06
  Q 257.90 164.65 254.61 163.11
  A 1.32 1.30 51.5 0 0 253.78 163.01
  Q 249.98 163.78 248.67 160.37
  Q 248.47 159.86 247.93 159.74
  Q 244.28 158.93 242.30 162.00
  A 1.72 1.67 -48.6 0 1 239.57 162.21
  Q 238.91 161.41 237.46 161.91
  C 236.15 162.36 234.89 164.07 234.52 165.26
  Q 234.19 166.29 235.01 166.48
  Q 235.50 166.59 235.36 167.07
  C 234.45 170.21 229.32 169.29 231.96 174.50
  Z"
/>
<path fill="#e5e5e5" d="
  M 95.32 125.86
  L 95.30 198.35
  Q 95.30 198.85 94.81 198.93
  L 85.98 200.40
  Q 85.56 200.46 85.56 200.04
  L 85.50 126.29
  Q 88.78 125.95 92.01 125.30
  Q 94.48 124.81 95.32 125.86
  Z"
/>
<path fill="#4c4d4d" d="
  M 195.46 134.93
  A 8.11 8.11 0.0 0 1 187.35 143.04
  A 8.11 8.11 0.0 0 1 179.24 134.93
  A 8.11 8.11 0.0 0 1 187.35 126.82
  A 8.11 8.11 0.0 0 1 195.46 134.93
  Z
  M 190.77 140.91
  C 200.56 133.48 186.03 122.06 181.44 132.10
  Q 181.14 132.74 181.85 132.76
  Q 183.31 132.80 186.03 132.54
  C 190.27 132.14 188.87 137.99 189.28 140.33
  Q 189.55 141.84 190.77 140.91
  Z"
/>
<path fill="#01a79d" d="
  M 190.77 140.91
  Q 189.55 141.84 189.28 140.33
  C 188.87 137.99 190.27 132.14 186.03 132.54
  Q 183.31 132.80 181.85 132.76
  Q 181.14 132.74 181.44 132.10
  C 186.03 122.06 200.56 133.48 190.77 140.91
  Z"
/>
<path fill="#216262" d="
  M 264.3295 136.9916
  A 2.00 2.00 0.0 0 1 262.3260 138.9881
  L 241.6060 138.9519
  A 2.00 2.00 0.0 0 1 239.6095 136.9484
  L 239.6105 136.3484
  A 2.00 2.00 0.0 0 1 241.6140 134.3519
  L 262.3340 134.3881
  A 2.00 2.00 0.0 0 1 264.3305 136.3916
  L 264.3295 136.9916
  Z
  M 263.68 136.63
  A 1.30 1.30 0.0 0 0 262.38 135.33
  L 241.88 135.33
  A 1.30 1.30 0.0 0 0 240.58 136.63
  L 240.58 136.69
  A 1.30 1.30 0.0 0 0 241.88 137.99
  L 262.38 137.99
  A 1.30 1.30 0.0 0 0 263.68 136.69
  L 263.68 136.63
  Z"
/>
<rect fill="#e5e5e5" x="240.58" y="135.33" width="23.10" height="2.66" rx="1.30"/>
<path fill="#e5e5e5" d="
  M 152.84 138.98
  A 0.79 0.79 0.0 0 1 153.87 138.55
  L 154.77 138.93
  A 2.04 1.76 22.7 0 1 155.97 141.34
  L 141.55 175.81
  A 2.04 1.76 22.7 0 1 138.99 176.64
  L 138.10 176.27
  A 0.79 0.79 0.0 0 1 137.67 175.23
  L 152.84 138.98
  Z"
/>
<path fill="#216262" d="
  M 258.26 141.75
  L 261.78 141.75
  Q 262.38 141.75 262.62 142.29
  C 264.22 145.80 260.27 146.52 257.90 145.97
  Q 257.34 145.84 257.33 146.42
  C 257.27 150.39 249.15 148.90 247.25 148.25
  A 0.74 0.73 9.5 0 1 246.75 147.56
  L 246.75 146.79
  A 0.67 0.67 0.0 0 0 245.94 146.14
  C 244.06 146.55 240.80 146.14 240.90 143.54
  Q 240.94 142.40 241.73 141.62
  Q 242.11 141.26 242.63 141.26
  Q 250.21 141.23 257.75 141.29
  Q 257.96 141.29 258.03 141.57
  A 0.24 0.23 -6.1 0 0 258.26 141.75
  Z
  M 261.99 143.61
  A 1.29 1.29 0.0 0 0 260.70 142.32
  L 243.56 142.32
  A 1.29 1.29 0.0 0 0 242.27 143.61
  L 242.27 143.69
  A 1.29 1.29 0.0 0 0 243.56 144.98
  L 260.70 144.98
  A 1.29 1.29 0.0 0 0 261.99 143.69
  L 261.99 143.61
  Z
  M 256.4599 147.0424
  A 4.28 0.92 0.3 0 0 252.1848 146.1000
  A 4.28 0.92 0.3 0 0 247.9001 146.9976
  A 4.28 0.92 0.3 0 0 252.1752 147.9400
  A 4.28 0.92 0.3 0 0 256.4599 147.0424
  Z"
/>
<rect fill="#e5e5e5" x="242.27" y="142.32" width="19.72" height="2.66" rx="1.29"/>
<path fill="#e5e5e5" d="
  M 121.60 158.33
  Q 126.49 161.82 131.55 165.09
  C 133.48 166.34 134.32 167.45 133.61 169.74
  A 0.84 0.83 -64.0 0 1 132.34 170.18
  L 118.20 160.59
  A 3.24 3.23 45.1 0 1 118.21 155.23
  L 132.69 145.47
  Q 133.19 145.14 133.43 145.68
  C 134.26 147.58 133.92 149.25 132.08 150.45
  Q 126.75 153.90 121.60 157.59
  Q 121.09 157.96 121.60 158.33
  Z"
/>
<path fill="#e5e5e5" d="
  M 172.25 157.62
  Q 167.40 153.92 162.19 150.70
  C 160.22 149.48 159.71 148.09 160.42 145.93
  A 0.65 0.65 0.0 0 1 161.40 145.59
  L 175.92 155.38
  A 3.09 3.09 0.0 0 1 175.92 160.50
  L 161.25 170.44
  Q 160.33 171.06 160.30 169.96
  L 160.23 167.13
  Q 160.21 166.61 160.65 166.31
  L 172.22 158.48
  A 0.53 0.53 0.0 0 0 172.25 157.62
  Z"
/>
<ellipse fill="#e5e5e5" cx="0.00" cy="0.00" transform="translate(252.18,147.02) rotate(0.3)" rx="4.28" ry="0.92"/>
<path fill="#216262" d="
  M 237.00 184.04
  Q 236.46 184.04 236.53 183.73
  C 238.53 182.59 243.11 183.35 243.01 186.52
  A 0.65 0.64 7.6 0 0 243.51 187.17
  Q 246.24 187.84 246.91 185.70
  Q 247.05 185.24 247.43 184.96
  Q 249.93 183.06 252.60 184.46
  Q 253.01 184.67 253.43 184.48
  C 257.10 182.81 252.59 178.07 258.29 176.08
  Q 258.80 175.91 258.93 175.39
  Q 259.52 172.97 257.19 172.78
  A 0.87 0.85 -6.0 0 1 256.44 172.18
  L 255.37 168.78
  A 0.97 0.96 -34.9 0 1 255.53 167.90
  Q 257.08 165.88 254.86 164.54
  Q 254.48 164.31 254.05 164.43
  Q 249.61 165.60 247.72 161.32
  Q 247.54 160.91 247.10 160.81
  Q 245.05 160.38 244.37 162.16
  Q 244.13 162.78 243.52 163.03
  L 240.55 164.23
  A 1.01 1.01 0.0 0 1 239.54 164.08
  L 238.63 163.34
  A 0.74 0.74 0.0 0 0 237.77 163.28
  L 236.58 164.00
  A 0.52 0.52 0.0 0 0 236.46 164.12
  Q 235.52 165.45 236.53 166.38
  A 0.79 0.78 -54.9 0 1 236.69 167.30
  L 235.02 170.65
  Q 234.83 171.03 234.43 171.17
  Q 233.85 171.38 233.40 171.19
  Q 232.52 170.80 232.53 171.76
  Q 232.55 173.23 231.96 174.50
  C 229.32 169.29 234.45 170.21 235.36 167.07
  Q 235.50 166.59 235.01 166.48
  Q 234.19 166.29 234.52 165.26
  C 234.89 164.07 236.15 162.36 237.46 161.91
  Q 238.91 161.41 239.57 162.21
  A 1.72 1.67 -48.6 0 0 242.30 162.00
  Q 244.28 158.93 247.93 159.74
  Q 248.47 159.86 248.67 160.37
  Q 249.98 163.78 253.78 163.01
  A 1.32 1.30 51.5 0 1 254.61 163.11
  Q 257.90 164.65 256.87 168.06
  Q 256.76 168.44 256.76 168.84
  Q 256.79 171.46 259.15 172.10
  Q 259.65 172.23 259.83 172.72
  C 260.88 175.61 259.60 176.08 257.38 177.47
  C 254.49 179.27 258.12 187.19 251.07 184.91
  Q 248.21 183.99 247.44 187.14
  A 0.83 0.81 2.5 0 1 246.76 187.75
  L 243.47 188.22
  Q 242.85 188.30 242.67 187.71
  Q 241.69 184.51 238.35 183.64
  Q 237.96 183.54 237.65 183.67
  Q 237.32 183.81 237.00 184.04
  Z"
/>
<path fill="#e5e5e5" d="
  M 236.53 183.73
  Q 234.65 182.61 234.75 180.29
  L 235.43 180.10
  Q 235.95 177.75 234.32 175.43
  Q 233.60 174.40 232.34 175.07
  Q 232.45 174.70 231.96 174.50
  Q 232.55 173.23 232.53 171.76
  Q 232.52 170.80 233.40 171.19
  Q 233.85 171.38 234.43 171.17
  Q 234.83 171.03 235.02 170.65
  L 236.69 167.30
  A 0.79 0.78 -54.9 0 0 236.53 166.38
  Q 235.52 165.45 236.46 164.12
  A 0.52 0.52 0.0 0 1 236.58 164.00
  L 237.77 163.28
  A 0.74 0.74 0.0 0 1 238.63 163.34
  L 239.54 164.08
  A 1.01 1.01 0.0 0 0 240.55 164.23
  L 243.52 163.03
  Q 244.13 162.78 244.37 162.16
  Q 245.05 160.38 247.10 160.81
  Q 247.54 160.91 247.72 161.32
  Q 249.61 165.60 254.05 164.43
  Q 254.48 164.31 254.86 164.54
  Q 257.08 165.88 255.53 167.90
  A 0.97 0.96 -34.9 0 0 255.37 168.78
  L 256.44 172.18
  A 0.87 0.85 -6.0 0 0 257.19 172.78
  Q 259.52 172.97 258.93 175.39
  Q 258.80 175.91 258.29 176.08
  C 252.59 178.07 257.10 182.81 253.43 184.48
  Q 253.01 184.67 252.60 184.46
  Q 249.93 183.06 247.43 184.96
  Q 247.05 185.24 246.91 185.70
  Q 246.24 187.84 243.51 187.17
  A 0.65 0.64 7.6 0 1 243.01 186.52
  C 243.11 183.35 238.53 182.59 236.53 183.73
  Z
  M 252.94 173.85
  A 7.38 7.38 0.0 0 0 245.56 166.47
  A 7.38 7.38 0.0 0 0 238.18 173.85
  A 7.38 7.38 0.0 0 0 245.56 181.23
  A 7.38 7.38 0.0 0 0 252.94 173.85
  Z"
/>
<path fill="#216262" d="
  M 252.94 173.85
  A 7.38 7.38 0.0 0 1 245.56 181.23
  A 7.38 7.38 0.0 0 1 238.18 173.85
  A 7.38 7.38 0.0 0 1 245.56 166.47
  A 7.38 7.38 0.0 0 1 252.94 173.85
  Z
  M 251.80 173.97
  A 6.31 6.31 0.0 0 0 245.49 167.66
  A 6.31 6.31 0.0 0 0 239.18 173.97
  A 6.31 6.31 0.0 0 0 245.49 180.28
  A 6.31 6.31 0.0 0 0 251.80 173.97
  Z"
/>
<circle fill="#01a79d" cx="245.49" cy="173.97" r="6.31"/>
<path fill="#216262" d="
  M 232.96 180.59
  C 230.99 179.67 224.87 178.18 225.94 175.30
  A 0.93 0.93 0.0 0 0 225.11 174.05
  L 220.34 173.88
  A 1.15 1.15 0.0 0 0 219.20 175.38
  C 220.10 178.16 214.68 179.65 212.83 180.52
  A 0.85 0.85 0.0 0 1 211.91 180.40
  L 209.82 178.60
  A 0.73 0.73 0.0 0 0 208.83 178.63
  L 205.26 182.14
  A 0.70 0.69 45.3 0 0 205.26 183.13
  L 206.93 184.81
  Q 207.33 185.20 207.13 185.73
  L 204.75 191.88
  A 0.98 0.97 10.5 0 1 203.84 192.50
  L 201.41 192.50
  A 0.65 0.65 0.0 0 0 200.76 193.15
  L 200.75 198.16
  Q 200.74 198.83 201.41 198.92
  L 203.97 199.26
  Q 204.58 199.34 204.79 199.92
  L 207.05 205.96
  A 0.59 0.57 56.3 0 1 206.94 206.56
  L 205.24 208.43
  A 0.51 0.50 -40.8 0 0 205.19 209.04
  Q 205.93 210.21 207.05 210.97
  Q 207.55 211.30 207.78 211.85
  Q 208.48 213.48 210.19 212.80
  Q 210.61 212.64 210.80 212.23
  Q 211.52 210.66 213.07 211.39
  Q 215.76 212.66 218.63 213.60
  Q 219.22 213.80 219.23 214.43
  L 219.26 216.56
  A 1.26 1.25 88.4 0 0 220.56 217.80
  L 224.79 217.64
  Q 225.46 217.61 225.62 216.95
  L 226.21 214.40
  Q 226.34 213.83 226.88 213.61
  L 232.76 211.24
  A 0.69 0.69 0.0 0 1 233.54 211.41
  L 234.69 212.62
  A 1.40 1.39 -44.3 0 0 236.70 212.64
  L 239.96 209.35
  A 0.50 0.50 0.0 0 0 239.98 208.66
  L 238.11 206.62
  A 0.72 0.71 34.7 0 1 237.97 205.88
  L 240.56 199.44
  A 0.41 0.40 7.8 0 1 240.91 199.18
  L 243.92 198.94
  A 0.61 0.60 87.4 0 0 244.47 198.33
  L 244.42 193.30
  A 0.76 0.75 2.1 0 0 243.73 192.56
  L 241.15 192.35
  Q 240.74 192.31 240.60 191.93
  L 238.13 185.53
  Q 238.58 185.01 238.75 185.41
  Q 239.96 188.29 241.16 191.40
  A 0.62 0.62 0.0 0 0 241.98 191.74
  Q 243.67 191.00 244.90 192.31
  Q 245.25 192.68 245.25 193.19
  L 245.25 198.53
  A 1.40 1.40 0.0 0 1 243.98 199.92
  L 241.73 200.13
  Q 241.03 200.19 240.91 200.88
  Q 240.41 203.57 238.68 205.70
  A 0.54 0.54 0.0 0 0 238.92 206.56
  C 243.25 208.10 238.65 212.44 236.63 213.71
  C 235.28 214.55 233.74 214.48 233.36 212.72
  Q 233.27 212.28 232.82 212.33
  Q 227.58 212.89 226.32 217.79
  Q 226.11 218.59 225.29 218.58
  L 219.67 218.52
  A 1.31 1.31 0.0 0 1 218.37 217.26
  L 218.29 214.99
  Q 218.27 214.44 217.75 214.27
  L 212.54 212.46
  Q 212.08 212.31 211.78 212.69
  C 209.93 215.04 208.10 213.96 206.40 212.15
  C 205.60 211.30 204.34 210.60 204.02 209.49
  Q 203.43 207.54 205.70 206.73
  A 0.50 0.49 -20.2 0 0 206.00 206.09
  L 203.98 200.65
  A 1.06 1.05 68.2 0 0 202.59 200.05
  Q 201.33 200.57 200.19 199.68
  Q 199.79 199.37 199.77 198.85
  Q 199.64 195.84 199.72 192.84
  Q 199.77 191.02 202.54 191.39
  Q 203.84 191.56 204.25 190.32
  C 204.69 189.01 206.95 185.12 204.67 184.27
  A 0.62 0.62 0.0 0 1 204.27 183.58
  L 204.60 181.54
  Q 204.70 180.95 205.11 180.54
  L 208.04 177.60
  Q 208.49 177.15 209.12 177.17
  Q 210.86 177.23 211.85 178.63
  A 0.42 0.42 0.0 0 0 212.33 178.79
  L 217.70 177.11
  A 0.68 0.68 0.0 0 0 218.17 176.51
  C 218.62 171.02 222.01 172.71 225.86 172.86
  A 0.97 0.97 0.0 0 1 226.69 174.25
  C 224.96 177.72 230.79 179.16 232.98 179.08
  Q 233.30 179.06 233.17 179.36
  Q 232.95 179.90 232.96 180.59
  Z"
/>
<path fill="#e5e5e5" d="
  M 232.96 180.59
  Q 233.34 180.02 234.01 180.81
  Q 234.45 183.66 236.90 184.60
  Q 237.72 184.87 238.13 185.53
  L 240.60 191.93
  Q 240.74 192.31 241.15 192.35
  L 243.73 192.56
  A 0.76 0.75 2.1 0 1 244.42 193.30
  L 244.47 198.33
  A 0.61 0.60 87.4 0 1 243.92 198.94
  L 240.91 199.18
  A 0.41 0.40 7.8 0 0 240.56 199.44
  L 237.97 205.88
  A 0.72 0.71 34.7 0 0 238.11 206.62
  L 239.98 208.66
  A 0.50 0.50 0.0 0 1 239.96 209.35
  L 236.70 212.64
  A 1.40 1.39 -44.3 0 1 234.69 212.62
  L 233.54 211.41
  A 0.69 0.69 0.0 0 0 232.76 211.24
  L 226.88 213.61
  Q 226.34 213.83 226.21 214.40
  L 225.62 216.95
  Q 225.46 217.61 224.79 217.64
  L 220.56 217.80
  A 1.26 1.25 88.4 0 1 219.26 216.56
  L 219.23 214.43
  Q 219.22 213.80 218.63 213.60
  Q 215.76 212.66 213.07 211.39
  Q 211.52 210.66 210.80 212.23
  Q 210.61 212.64 210.19 212.80
  Q 208.48 213.48 207.78 211.85
  Q 207.55 211.30 207.05 210.97
  Q 205.93 210.21 205.19 209.04
  A 0.51 0.50 -40.8 0 1 205.24 208.43
  L 206.94 206.56
  A 0.59 0.57 56.3 0 0 207.05 205.96
  L 204.79 199.92
  Q 204.58 199.34 203.97 199.26
  L 201.41 198.92
  Q 200.74 198.83 200.75 198.16
  L 200.76 193.15
  A 0.65 0.65 0.0 0 1 201.41 192.50
  L 203.84 192.50
  A 0.98 0.97 10.5 0 0 204.75 191.88
  L 207.13 185.73
  Q 207.33 185.20 206.93 184.81
  L 205.26 183.13
  A 0.70 0.69 45.3 0 1 205.26 182.14
  L 208.83 178.63
  A 0.73 0.73 0.0 0 1 209.82 178.60
  L 211.91 180.40
  A 0.85 0.85 0.0 0 0 212.83 180.52
  C 214.68 179.65 220.10 178.16 219.20 175.38
  A 1.15 1.15 0.0 0 1 220.34 173.88
  L 225.11 174.05
  A 0.93 0.93 0.0 0 1 225.94 175.30
  C 224.87 178.18 230.99 179.67 232.96 180.59
  Z
  M 234.35 195.70
  A 11.80 11.80 0.0 0 0 222.55 183.90
  A 11.80 11.80 0.0 0 0 210.75 195.70
  A 11.80 11.80 0.0 0 0 222.55 207.50
  A 11.80 11.80 0.0 0 0 234.35 195.70
  Z"
/>
<path fill="#216262" d="
  M 235.43 180.10
  L 234.26 176.62
  Q 234.09 176.11 233.58 175.92
  Q 232.76 175.60 232.34 175.07
  Q 233.60 174.40 234.32 175.43
  Q 235.95 177.75 235.43 180.10
  Z"
/>
<path fill="#040505" fill-opacity="0.992" d="
  M 234.75 180.29
  Q 234.65 182.61 236.53 183.73
  Q 236.46 184.04 237.00 184.04
  Q 237.06 184.24 236.90 184.60
  Q 234.45 183.66 234.01 180.81
  Q 234.35 180.44 234.75 180.29
  Z"
/>
<path fill="#216262" d="
  M 234.35 195.70
  A 11.80 11.80 0.0 0 1 222.55 207.50
  A 11.80 11.80 0.0 0 1 210.75 195.70
  A 11.80 11.80 0.0 0 1 222.55 183.90
  A 11.80 11.80 0.0 0 1 234.35 195.70
  Z
  M 233.52 195.92
  A 10.97 10.97 0.0 0 0 222.55 184.95
  A 10.97 10.97 0.0 0 0 211.58 195.92
  A 10.97 10.97 0.0 0 0 222.55 206.89
  A 10.97 10.97 0.0 0 0 233.52 195.92
  Z"
/>
<path fill="#fbb043" d="
  M 280.49 204.63
  C 283.24 205.32 285.21 205.29 287.35 203.13
  Q 291.78 198.67 304.86 185.88
  C 310.03 180.82 316.19 187.29 310.91 192.67
  Q 298.97 204.84 286.75 216.75
  C 283.78 219.65 281.55 218.88 278.72 216.23
  Q 271.03 209.01 268.85 206.41
  C 266.20 203.27 268.03 198.45 272.20 198.60
  C 274.98 198.71 277.94 202.13 279.70 204.15
  Q 280.02 204.51 280.49 204.63
  Z"
/>
<circle fill="#01a79d" cx="222.55" cy="195.92" r="10.97"/>
<path fill="#fbb043" d="
  M 110.66 212.25
  Q 94.13 203.95 76.12 216.83
  Q 75.84 217.04 75.58 216.79
  L 70.79 212.17
  Q 70.44 211.84 70.79 211.52
  C 90.52 193.39 122.62 200.38 132.81 224.83
  C 142.56 248.23 128.49 274.00 103.45 278.09
  C 66.89 284.05 45.16 242.24 68.28 213.97
  Q 68.97 213.12 69.75 213.89
  L 74.15 218.23
  Q 74.54 218.62 74.20 219.05
  Q 62.27 234.42 68.43 250.60
  C 76.91 272.85 105.09 277.62 120.63 259.96
  C 134.35 244.37 128.34 221.12 110.66 212.25
  Z"
/>
<path fill="#e5e5e5" d="
  M 289.09 228.37
  A 3.43 3.09 -19.7 0 0 290.50 225.75
  L 290.50 215.53
  Q 290.50 214.91 290.93 214.48
  L 300.02 205.28
  A 0.32 0.32 0.0 0 1 300.57 205.51
  C 300.40 218.79 301.28 231.65 300.56 245.58
  C 299.95 257.40 292.79 257.24 283.42 257.46
  C 262.43 257.95 241.44 257.33 220.44 257.52
  C 191.71 257.77 162.97 257.40 134.24 257.59
  Q 133.79 257.59 133.99 257.19
  Q 140.34 243.92 136.72 229.53
  A 0.46 0.46 0.0 0 1 137.17 228.95
  C 187.20 229.28 237.24 228.99 287.25 229.02
  C 287.89 229.02 288.65 228.68 289.09 228.37
  Z"
/>
<path fill="#e5e5e5" d="
  M 78.21 248.35
  C 82.36 257.20 90.91 262.03 100.58 260.46
  C 115.46 258.04 122.92 241.11 114.73 228.44
  C 107.80 217.73 93.38 216.00 83.64 223.96
  A 0.64 0.64 0.0 0 1 82.79 223.92
  L 77.96 219.08
  Q 77.60 218.73 77.99 218.40
  C 88.06 209.93 101.17 208.79 112.41 215.64
  C 128.82 225.65 130.70 249.27 115.81 261.78
  C 88.71 284.55 52.29 247.63 75.77 220.81
  Q 76.20 220.32 76.66 220.78
  L 81.19 225.31
  Q 81.57 225.69 81.26 226.13
  Q 73.13 237.53 78.21 248.35
  Z"
/>
<path fill="#fbb043" d="
  M 89.73 226.08
  L 87.88 227.99
  Q 87.38 228.51 86.88 228.00
  L 85.18 226.30
  A 0.60 0.59 49.1 0 1 85.24 225.40
  C 106.12 209.60 128.67 240.32 107.92 255.40
  C 100.18 261.03 87.79 259.21 82.09 251.19
  C 76.85 243.81 77.26 234.75 82.90 227.58
  A 0.50 0.50 0.0 0 1 83.68 227.58
  L 85.49 229.82
  A 0.50 0.50 0.0 0 1 85.46 230.49
  L 82.62 233.33
  Q 81.87 234.08 82.89 234.38
  L 86.32 235.36
  A 0.55 0.55 0.0 0 1 86.70 236.03
  Q 85.21 241.95 88.25 246.17
  C 96.40 257.47 113.70 246.44 106.49 234.31
  Q 102.55 227.67 93.63 229.38
  Q 93.08 229.49 92.89 228.95
  L 92.09 226.61
  A 1.42 1.42 0.0 0 0 89.73 226.08
  Z"
/>
<path fill="#e5e5e5" d="
  M 94.28 238.12
  A 0.94 0.94 0.0 0 0 95.46 236.95
  L 94.16 232.74
  A 1.35 1.35 0.0 0 1 95.40 231.00
  C 108.29 230.64 109.80 246.85 98.38 248.60
  C 91.95 249.59 86.74 243.25 88.93 236.94
  A 0.50 0.49 17.9 0 1 89.55 236.63
  L 94.28 238.12
  Z"
/>
<path fill="#b2b2b2" d="
  M 220.24 277.09
  L 166.21 277.03
  A 0.24 0.24 0.0 0 1 166.11 276.58
  Q 176.98 271.35 178.51 259.23
  Q 178.44 259.07 178.52 258.92
  Q 178.66 258.66 178.94 258.66
  Q 192.26 258.26 205.58 258.68
  Q 206.08 258.69 206.57 258.80
  Q 208.05 259.12 207.53 259.65
  A 0.52 0.50 62.6 0 0 207.40 260.08
  Q 209.42 271.39 220.24 277.09
  Z"
/>
<path fill="#040505" fill-opacity="0.992" d="
  M 177.79 259.25
  L 178.51 259.23
  Q 176.98 271.35 166.11 276.58
  A 0.24 0.24 0.0 0 0 166.21 277.03
  L 220.24 277.09
  L 222.04 276.38
  Q 236.13 277.91 240.74 277.33
  C 247.15 276.52 246.95 285.10 241.51 285.16
  Q 193.24 285.77 145.01 285.13
  Q 143.40 285.11 141.77 284.92
  Q 141.41 284.88 141.22 284.55
  Q 139.20 281.00 141.13 277.56
  A 1.09 1.09 0.0 0 1 142.08 277.00
  C 157.71 277.03 173.93 279.89 177.79 259.25
  Z
  M 202.51 278.56
  L 185.24 278.42
  Q 165.79 277.81 146.26 278.03
  C 142.64 278.07 139.92 279.08 141.85 283.37
  A 1.70 1.69 77.8 0 0 143.39 284.37
  L 242.82 284.49
  A 1.10 1.08 16.1 0 0 243.74 283.99
  Q 245.21 281.72 244.20 279.10
  Q 244.03 278.68 243.61 278.52
  Q 242.32 278.04 240.25 278.05
  Q 214.14 278.06 202.51 278.56
  Z"
/>
<path fill="#e5e5e5" d="
  M 185.24 278.42
  Q 187.20 279.18 189.22 279.07
  Q 194.66 279.93 200.17 279.15
  Q 201.14 279.21 202.51 278.56
  Q 214.14 278.06 240.25 278.05
  Q 242.32 278.04 243.61 278.52
  Q 244.03 278.68 244.20 279.10
  Q 245.21 281.72 243.74 283.99
  A 1.10 1.08 16.1 0 1 242.82 284.49
  L 143.39 284.37
  A 1.70 1.69 77.8 0 1 141.85 283.37
  C 139.92 279.08 142.64 278.07 146.26 278.03
  Q 165.79 277.81 185.24 278.42
  Z"
/>
<path fill="#b2b2b2" d="
  M 202.51 278.56
  Q 201.14 279.21 200.17 279.15
  Q 194.67 278.39 189.22 279.07
  Q 187.20 279.18 185.24 278.42
  L 202.51 278.56
  Z"
/>
<path fill="#474133" d="
  M 200.17 279.15
  Q 194.66 279.93 189.22 279.07
  Q 194.67 278.39 200.17 279.15
  Z"
/>
</svg>
