<?xml version="1.0" encoding="UTF-8" standalone="no"?>
<!DOCTYPE svg PUBLIC "-//W3C//DTD SVG 1.1//EN" "http://www.w3.org/Graphics/SVG/1.1/DTD/svg11.dtd">
<svg xmlns="http://www.w3.org/2000/svg" version="1.1" viewBox="0.00 0.00 264.00 191.00">
<g stroke-width="2.00" fill="none" stroke-linecap="butt">
<path stroke="#e9e9e9" vector-effect="non-scaling-stroke" d="
  M 61.53 0.00
  L 62.31 5.72
  A 2.63 2.63 0.0 0 1 61.09 8.31
  Q 59.78 9.12 59.15 10.52
  Q 58.91 11.05 58.32 11.02
  C 55.06 10.84 51.71 13.88 48.89 15.39
  Q 46.90 16.45 47.47 18.40
  A 2.10 2.10 0.0 0 1 45.74 21.07
  Q 45.39 21.12 44.80 20.45
  C 44.06 19.59 43.84 17.85 43.60 16.73
  Q 43.49 16.20 42.99 15.98
  L 41.59 15.35
  Q 41.19 15.18 40.92 14.83
  Q 39.98 13.58 38.42 14.41
  C 36.94 15.19 36.48 15.80 34.70 15.54
  C 29.73 14.83 25.58 15.92 21.08 15.55
  C 18.32 15.32 17.72 13.69 14.26 14.26
  Q 11.29 14.75 8.01 14.33"
/>
<path stroke="#ededed" vector-effect="non-scaling-stroke" d="
  M 8.01 14.33
  L 0.00 9.47"
/>
<path stroke="#f7f7f7" vector-effect="non-scaling-stroke" d="
  M 96.42 0.00
  Q 98.20 0.29 97.19 5.18"
/>
<path stroke="#e9e9e9" vector-effect="non-scaling-stroke" d="
  M 97.19 5.18
  L 92.62 7.64
  A 0.51 0.51 0.0 0 0 92.52 8.46
  L 95.32 11.13
  Q 95.63 11.42 95.71 11.83
  Q 96.65 16.39 101.22 17.32
  Q 101.71 17.42 102.09 17.74
  Q 107.00 21.92 113.05 24.15
  Q 114.84 24.81 114.77 22.91
  Q 114.65 19.96 114.95 16.07
  Q 115.05 14.86 114.17 14.89"
/>
<path stroke="#f7f7f7" vector-effect="non-scaling-stroke" d="
  M 114.17 14.89
  C 119.60 13.30 126.03 8.71 130.94 5.70
  C 133.46 4.17 130.84 1.68 133.81 0.00"
/>
<path stroke="#f7f7f7" vector-effect="non-scaling-stroke" d="
  M 162.80 0.00
  L 166.92 0.52
  A 1.40 1.40 0.0 0 1 167.74 2.89
  L 167.35 3.28
  A 0.46 0.45 44.1 0 0 167.37 3.94
  Q 170.80 7.05 174.84 9.28
  C 178.28 11.19 180.52 13.23 183.13 15.70
  A 1.08 1.08 0.0 0 1 183.48 16.52
  Q 183.48 18.86 181.46 20.00
  Q 180.99 20.27 180.44 20.25
  C 176.76 20.06 174.41 22.03 171.19 22.22
  Q 161.53 22.77 151.84 22.92
  Q 151.16 22.93 151.25 23.60
  L 151.29 23.90
  Q 151.37 24.45 151.93 24.49
  Q 152.74 24.53 153.01 25.27
  A 0.55 0.55 0.0 0 1 152.49 26.00
  L 152.11 26.00
  Q 151.59 26.00 151.33 26.45
  L 150.71 27.52
  Q 150.50 27.89 150.50 27.46
  L 150.50 27.01
  A 0.22 0.22 0.0 0 0 150.06 26.98
  C 149.34 31.40 150.03 34.72 145.95 37.42
  Q 136.66 43.56 129.32 47.23
  C 124.00 49.89 122.86 42.85 119.78 45.32
  A 1.99 1.91 -66.4 0 1 118.77 45.74
  L 107.29 46.87
  A 0.31 0.30 -34.3 0 1 107.12 46.84
  L 105.46 46.01
  Q 104.99 45.78 104.48 45.80
  L 97.45 46.07
  Q 96.90 46.09 96.45 45.76
  Q 88.51 39.88 79.51 35.80
  Q 79.02 35.57 78.55 35.84
  L 61.86 45.51"
/>
<path stroke="#e9e9e9" vector-effect="non-scaling-stroke" d="
  M 61.86 45.51
  L 44.92 35.61
  Q 44.49 35.35 44.06 35.61
  L 27.91 45.21
  A 2.02 2.01 44.6 0 1 25.86 45.22
  L 9.15 35.52"
/>
<path stroke="#f7f7f7" vector-effect="non-scaling-stroke" d="
  M 9.15 35.52
  Q 9.36 31.78 9.19 27.77
  C 9.01 23.80 9.95 19.03 8.01 14.33"
/>
<path stroke="#e9e9e9" vector-effect="non-scaling-stroke" d="
  M 121.22 40.05
  L 114.46 35.61
  A 0.69 0.68 -56.2 0 0 113.52 35.80
  Q 111.88 38.26 109.12 39.27
  A 0.25 0.25 0.0 0 0 109.22 39.76
  Q 111.49 39.67 113.51 38.65
  A 2.83 2.81 -46.7 0 1 115.92 38.57
  L 120.86 40.72
  A 0.38 0.38 0.0 0 0 121.22 40.05"
/>
<path stroke="#ededed" vector-effect="non-scaling-stroke" d="
  M 114.17 14.89
  L 97.19 5.18"
/>
<path stroke="#f7f7f7" vector-effect="non-scaling-stroke" d="
  M 213.72 0.00
  Q 210.98 3.55 209.48 8.70
  Q 209.34 9.19 208.95 9.52
  C 205.22 12.74 202.52 16.34 198.78 20.19
  C 195.96 23.11 195.58 25.97 191.86 28.58
  Q 191.44 28.88 191.26 29.38
  C 189.57 34.33 185.78 37.53 183.96 42.24
  Q 181.65 48.19 178.54 52.05
  C 175.99 55.24 174.56 58.35 172.38 61.49
  C 170.18 64.67 170.34 67.88 167.12 70.67
  Q 164.71 72.76 164.04 73.86
  Q 162.05 77.10 161.11 80.85
  Q 160.98 81.36 160.58 81.68
  Q 158.21 83.57 157.27 85.25
  C 153.95 91.13 151.69 94.98 146.78 98.43
  Q 146.39 98.71 146.21 99.16
  C 144.45 103.80 141.45 104.34 138.58 107.63
  Q 134.74 112.04 129.04 113.72
  C 127.26 114.24 125.36 113.40 123.68 115.11
  A 1.20 1.19 -68.1 0 1 122.86 115.46
  C 118.38 115.47 114.46 116.69 110.17 115.12
  A 0.74 0.71 46.3 0 0 109.73 115.10
  L 103.80 116.55
  Q 103.28 116.68 102.91 117.07
  C 100.37 119.77 99.95 123.30 99.10 126.73
  Q 98.97 127.29 98.48 127.57
  L 83.78 136.21
  A 3.81 3.81 0.0 0 0 81.90 139.63
  L 82.38 153.54
  A 1.24 1.23 -84.9 0 1 80.89 154.79
  C 77.43 154.06 72.11 150.87 69.01 151.54
  C 63.34 152.75 56.75 150.81 51.44 148.80
  Q 50.07 148.28 47.77 149.15
  Q 47.25 149.35 47.20 149.90
  L 46.66 155.98
  A 2.30 2.30 0.0 0 0 47.89 158.23
  L 57.20 163.06"
/>
<path stroke="#ededed" vector-effect="non-scaling-stroke" d="
  M 57.20 163.06
  L 63.85 167.27"
/>
<path stroke="#f7f7f7" vector-effect="non-scaling-stroke" d="
  M 63.85 167.27
  L 64.25 172.50
  A 2.29 2.24 -61.7 0 0 64.49 173.33
  L 66.03 176.25"
/>
<path stroke="#908d8e" vector-effect="non-scaling-stroke" d="
  M 66.03 176.25
  L 0.00 176.27"
/>
<path stroke="#f7f7f7" vector-effect="non-scaling-stroke" d="
  M 0.00 129.42
  L 0.61 131.96
  Q 0.74 132.50 1.21 132.81
  Q 6.10 136.07 11.99 135.87
  A 1.66 1.57 -62.2 0 0 12.84 135.58
  Q 18.41 131.65 24.16 127.97
  Q 25.56 127.08 25.80 124.93
  Q 26.99 114.23 26.79 106.75
  Q 26.78 106.28 27.18 106.04
  L 42.46 96.91
  A 3.01 2.99 76.1 0 0 43.92 94.48
  L 44.93 76.04"
/>
<path stroke="#ededed" vector-effect="non-scaling-stroke" d="
  M 44.93 76.04
  L 60.87 66.37
  Q 61.62 65.92 61.63 65.05
  L 61.86 45.51"
/>
<path stroke="#cacaca" vector-effect="non-scaling-stroke" d="
  M 264.00 75.07
  Q 263.70 74.34 263.74 73.26
  Q 263.76 72.68 263.24 72.96
  C 261.46 73.93 258.06 74.87 258.02 77.26
  Q 257.84 89.37 258.03 95.44
  Q 258.04 95.95 258.42 96.30
  Q 260.86 98.59 264.00 99.63"
/>
<path stroke="#e9e9e9" vector-effect="non-scaling-stroke" d="
  M 264.00 125.58
  Q 263.53 124.41 263.82 123.36
  A 0.69 0.69 0.0 0 0 263.16 122.48
  L 241.08 122.05
  A 1.01 1.00 0.0 0 1 240.09 121.07
  L 239.78 106.77
  Q 239.77 106.11 239.20 105.77
  L 225.44 97.51
  A 3.35 3.34 12.9 0 1 223.84 94.97
  L 223.58 92.35
  Q 223.52 91.70 222.86 91.72
  L 191.65 92.61
  A 0.72 0.70 9.6 0 0 191.02 93.05
  L 190.26 94.96
  Q 190.08 95.42 189.61 95.57
  L 187.43 96.28
  Q 186.98 96.42 186.76 96.84
  L 185.62 99.09
  A 0.85 0.84 18.1 0 1 184.73 99.54
  Q 180.58 98.88 180.19 103.00
  Q 180.15 103.38 179.76 103.35
  C 168.13 102.49 169.62 118.58 170.41 126.48
  Q 170.46 127.02 170.93 127.29
  L 187.27 136.78
  Q 187.80 137.09 188.32 136.77
  L 204.38 126.91
  Q 204.86 126.62 205.34 126.90
  L 221.72 136.35
  A 2.38 2.38 0.0 0 0 224.17 136.30
  Q 229.98 132.60 236.45 128.80
  C 242.36 125.31 251.59 133.81 257.65 136.69
  A 0.92 0.92 0.0 0 0 258.53 136.65
  L 264.00 133.31"
/>
<path stroke="#cacaca" vector-effect="non-scaling-stroke" d="
  M 264.00 160.43
  L 258.02 157.67
  Q 257.50 157.43 257.00 157.71
  L 240.63 167.13"
/>
<path stroke="#e9e9e9" vector-effect="non-scaling-stroke" d="
  M 240.63 167.13
  Q 233.05 163.31 225.44 159.04
  Q 224.43 158.48 224.13 157.78
  C 223.38 156.06 222.30 155.09 220.39 156.16
  Q 220.01 156.38 219.57 156.36
  C 218.26 156.33 217.20 155.84 215.95 155.81
  C 208.47 155.64 198.17 154.25 191.17 156.65
  Q 188.56 157.55 188.04 154.77
  Q 187.94 154.24 187.42 154.12
  L 182.89 153.11
  A 0.96 0.96 0.0 0 0 181.96 153.40
  Q 179.98 155.58 177.66 157.31
  Q 177.26 157.60 177.16 157.93
  Q 176.98 158.51 177.11 159.16
  Q 177.18 159.49 176.95 159.75
  C 174.66 162.29 171.82 162.11 169.17 163.53
  A 0.92 0.91 -36.9 0 0 168.96 164.99
  Q 171.47 167.44 170.55 171.00
  Q 170.42 171.47 170.52 171.94
  L 171.42 176.25"
/>
<path stroke="#8b8889" vector-effect="non-scaling-stroke" d="
  M 171.42 176.25
  L 66.03 176.25"
/>
<path stroke="#e9e9e9" vector-effect="non-scaling-stroke" d="
  M 63.85 167.27
  Q 67.59 166.70 70.02 163.45
  Q 70.37 162.98 69.80 162.87
  Q 67.36 162.38 65.70 164.19
  A 0.63 0.61 32.1 0 1 65.00 164.34
  Q 60.66 162.45 57.75 161.98
  Q 57.12 161.87 57.20 163.06"
/>
<path stroke="#e9e9e9" vector-effect="non-scaling-stroke" d="
  M 227.19 69.52
  Q 220.35 65.81 213.42 68.72
  A 1.07 1.07 0.0 0 0 213.31 70.65
  L 222.11 75.54
  A 1.54 1.52 -45.2 0 0 223.63 75.53
  Q 230.73 71.45 236.93 66.11
  A 0.24 0.24 0.0 0 0 236.68 65.71
  L 228.00 69.55
  Q 227.59 69.73 227.19 69.52"
/>
<path stroke="#e9e9e9" vector-effect="non-scaling-stroke" d="
  M 115.04 154.53
  L 114.40 152.75
  Q 114.22 152.25 113.81 152.59
  C 110.65 155.11 108.10 153.74 104.52 154.78
  C 98.86 156.43 93.49 154.79 88.64 155.71
  Q 86.61 156.10 85.31 155.87
  A 1.48 1.48 0.0 0 0 84.31 158.60
  L 98.36 166.81
  A 2.43 2.42 45.1 0 0 100.78 166.82
  L 115.70 158.27
  A 2.72 2.71 44.7 0 1 118.37 158.26
  L 133.83 166.95
  A 1.11 1.11 0.0 0 0 134.76 167.02
  Q 140.07 165.07 144.11 161.11
  A 1.31 1.31 0.0 0 0 143.75 158.99
  Q 140.48 157.46 137.73 155.11
  Q 137.32 154.76 136.80 154.68
  Q 130.64 153.64 125.92 149.58
  Q 124.37 148.24 120.41 146.75
  Q 119.95 146.57 119.83 146.10
  L 119.57 145.08
  A 1.31 1.30 -52.0 0 0 117.00 145.40
  L 117.00 154.19
  A 1.01 1.01 0.0 0 1 115.04 154.53"
/>
<path stroke="#ededed" vector-effect="non-scaling-stroke" d="
  M 9.15 35.52
  L 0.00 40.32"
/>
<path stroke="#e9e9e9" vector-effect="non-scaling-stroke" d="
  M 44.93 76.04
  Q 41.07 76.00 36.96 76.34
  C 30.09 76.91 24.31 76.89 17.89 76.69
  Q 17.39 76.68 16.95 76.93
  C 15.11 77.96 10.89 76.65 9.08 76.01"
/>
<path stroke="#ededed" vector-effect="non-scaling-stroke" d="
  M 9.08 76.01
  L 0.00 71.60"
/>
<path stroke="#f7f7f7" vector-effect="non-scaling-stroke" d="
  M 9.08 76.01
  L 9.15 96.93"
/>
<path stroke="#ededed" vector-effect="non-scaling-stroke" d="
  M 9.15 96.93
  Q 2.13 99.13 0.00 103.40"
/>
<path stroke="#e9e9e9" vector-effect="non-scaling-stroke" d="
  M 0.00 107.19
  C 7.23 107.10 13.02 108.68 20.60 106.39
  A 0.97 0.93 48.1 0 1 21.29 106.44
  Q 22.90 107.19 24.17 106.16
  Q 24.71 105.72 24.10 105.37
  L 9.15 96.93"
/>
<path stroke="#c0c0c0" vector-effect="non-scaling-stroke" d="
  M 240.63 167.13
  Q 239.78 171.25 240.51 176.25"
/>
<path stroke="#827f80" vector-effect="non-scaling-stroke" d="
  M 240.51 176.25
  L 171.42 176.25"
/>
<path stroke="#636061" vector-effect="non-scaling-stroke" d="
  M 264.00 176.56
  Q 263.69 176.42 263.69 175.74
  A 0.02 0.02 0.0 0 0 263.65 175.73
  Q 263.50 175.88 263.35 176.01
  A 0.99 0.98 25.2 0 1 262.73 176.23
  L 240.51 176.25"
/>
<path stroke="#636061" vector-effect="non-scaling-stroke" d="
  M 133.96 183.28
  C 132.35 183.22 129.37 183.84 128.68 181.95
  A 0.34 0.34 0.0 0 0 128.02 182.06
  L 127.99 184.00
  Q 127.98 184.71 128.68 184.85
  Q 131.68 185.45 133.17 185.20
  Q 134.32 185.00 134.44 183.84
  Q 134.50 183.30 133.96 183.28"
/>
<path stroke="#636061" vector-effect="non-scaling-stroke" d="
  M 107.85 182.86
  Q 106.40 181.20 105.12 182.83
  A 1.46 1.46 0.0 0 0 106.46 185.18
  Q 109.96 184.73 113.00 186.06
  Q 113.47 186.26 113.86 185.94
  L 115.69 184.45
  A 0.68 0.68 0.0 0 0 115.26 183.25
  L 108.71 183.25
  A 1.14 1.14 0.0 0 1 107.85 182.86"
/>
<path stroke="#636061" vector-effect="non-scaling-stroke" d="
  M 121.16 183.87
  L 117.56 182.28
  A 0.24 0.24 0.0 0 0 117.24 182.40
  L 117.05 182.84
  A 1.96 1.94 -66.2 0 0 118.03 185.42
  L 118.53 185.64
  A 1.96 1.94 -66.2 0 0 121.09 184.62
  L 121.29 184.19
  A 0.24 0.24 0.0 0 0 121.16 183.87"
/>
<path stroke="#636061" vector-effect="non-scaling-stroke" d="
  M 124.32 182.95
  Q 122.93 181.68 122.79 183.98
  A 0.96 0.95 -88.3 0 0 123.74 185.00
  L 125.50 185.00
  A 1.58 1.49 -22.8 0 0 126.67 182.38
  Q 125.67 181.48 125.05 182.80
  Q 124.78 183.37 124.32 182.95"
/>
<path stroke="#636061" vector-effect="non-scaling-stroke" d="
  M 151.75 183.21
  Q 151.75 183.08 151.77 182.95
  Q 151.84 182.37 151.29 182.54
  C 149.25 183.15 146.90 183.35 144.89 182.52
  Q 144.31 182.29 143.90 182.68
  Q 143.54 183.02 143.06 183.14
  Q 140.39 183.81 137.90 182.82
  Q 137.45 182.64 137.00 182.82
  L 135.42 183.44
  A 0.88 0.88 0.0 0 0 135.74 185.14
  C 142.53 185.12 152.50 186.38 158.89 184.83
  A 0.85 0.85 0.0 0 0 158.65 183.16
  L 152.03 183.48
  Q 151.75 183.49 151.75 183.21"
/>
<path stroke="#636061" vector-effect="non-scaling-stroke" d="
  M 106.5000 184.2400
  A 0.74 0.52 90.0 0 0 107.0200 183.5000
  A 0.74 0.52 90.0 0 0 106.5000 182.7600
  A 0.74 0.52 90.0 0 0 105.9800 183.5000
  A 0.74 0.52 90.0 0 0 106.5000 184.2400"
/>
</g>
<path fill="#dfdfdf" d="
  M 0.00 0.00
  L 61.53 0.00
  L 62.31 5.72
  A 2.63 2.63 0.0 0 1 61.09 8.31
  Q 59.78 9.12 59.15 10.52
  Q 58.91 11.05 58.32 11.02
  C 55.06 10.84 51.71 13.88 48.89 15.39
  Q 46.90 16.45 47.47 18.40
  A 2.10 2.10 0.0 0 1 45.74 21.07
  Q 45.39 21.12 44.80 20.45
  C 44.06 19.59 43.84 17.85 43.60 16.73
  Q 43.49 16.20 42.99 15.98
  L 41.59 15.35
  Q 41.19 15.18 40.92 14.83
  Q 39.98 13.58 38.42 14.41
  C 36.94 15.19 36.48 15.80 34.70 15.54
  C 29.73 14.83 25.58 15.92 21.08 15.55
  C 18.32 15.32 17.72 13.69 14.26 14.26
  Q 11.29 14.75 8.01 14.33
  L 0.00 9.47
  L 0.00 0.00
  Z"
/>
<path fill="#f2f2f2" d="
  M 61.53 0.00
  L 96.42 0.00
  Q 98.20 0.29 97.19 5.18
  L 92.62 7.64
  A 0.51 0.51 0.0 0 0 92.52 8.46
  L 95.32 11.13
  Q 95.63 11.42 95.71 11.83
  Q 96.65 16.39 101.22 17.32
  Q 101.71 17.42 102.09 17.74
  Q 107.00 21.92 113.05 24.15
  Q 114.84 24.81 114.77 22.91
  Q 114.65 19.96 114.95 16.07
  Q 115.05 14.86 114.17 14.89
  C 119.60 13.30 126.03 8.71 130.94 5.70
  C 133.46 4.17 130.84 1.68 133.81 0.00
  L 162.80 0.00
  L 166.92 0.52
  A 1.40 1.40 0.0 0 1 167.74 2.89
  L 167.35 3.28
  A 0.46 0.45 44.1 0 0 167.37 3.94
  Q 170.80 7.05 174.84 9.28
  C 178.28 11.19 180.52 13.23 183.13 15.70
  A 1.08 1.08 0.0 0 1 183.48 16.52
  Q 183.48 18.86 181.46 20.00
  Q 180.99 20.27 180.44 20.25
  C 176.76 20.06 174.41 22.03 171.19 22.22
  Q 161.53 22.77 151.84 22.92
  Q 151.16 22.93 151.25 23.60
  L 151.29 23.90
  Q 151.37 24.45 151.93 24.49
  Q 152.74 24.53 153.01 25.27
  A 0.55 0.55 0.0 0 1 152.49 26.00
  L 152.11 26.00
  Q 151.59 26.00 151.33 26.45
  L 150.71 27.52
  Q 150.50 27.89 150.50 27.46
  L 150.50 27.01
  A 0.22 0.22 0.0 0 0 150.06 26.98
  C 149.34 31.40 150.03 34.72 145.95 37.42
  Q 136.66 43.56 129.32 47.23
  C 124.00 49.89 122.86 42.85 119.78 45.32
  A 1.99 1.91 -66.4 0 1 118.77 45.74
  L 107.29 46.87
  A 0.31 0.30 -34.3 0 1 107.12 46.84
  L 105.46 46.01
  Q 104.99 45.78 104.48 45.80
  L 97.45 46.07
  Q 96.90 46.09 96.45 45.76
  Q 88.51 39.88 79.51 35.80
  Q 79.02 35.57 78.55 35.84
  L 61.86 45.51
  L 44.92 35.61
  Q 44.49 35.35 44.06 35.61
  L 27.91 45.21
  A 2.02 2.01 44.6 0 1 25.86 45.22
  L 9.15 35.52
  Q 9.36 31.78 9.19 27.77
  C 9.01 23.80 9.95 19.03 8.01 14.33
  Q 11.29 14.75 14.26 14.26
  C 17.72 13.69 18.32 15.32 21.08 15.55
  C 25.58 15.92 29.73 14.83 34.70 15.54
  C 36.48 15.80 36.94 15.19 38.42 14.41
  Q 39.98 13.58 40.92 14.83
  Q 41.19 15.18 41.59 15.35
  L 42.99 15.98
  Q 43.49 16.20 43.60 16.73
  C 43.84 17.85 44.06 19.59 44.80 20.45
  Q 45.39 21.12 45.74 21.07
  A 2.10 2.10 0.0 0 0 47.47 18.40
  Q 46.90 16.45 48.89 15.39
  C 51.71 13.88 55.06 10.84 58.32 11.02
  Q 58.91 11.05 59.15 10.52
  Q 59.78 9.12 61.09 8.31
  A 2.63 2.63 0.0 0 0 62.31 5.72
  L 61.53 0.00
  Z
  M 121.22 40.05
  L 114.46 35.61
  A 0.69 0.68 -56.2 0 0 113.52 35.80
  Q 111.88 38.26 109.12 39.27
  A 0.25 0.25 0.0 0 0 109.22 39.76
  Q 111.49 39.67 113.51 38.65
  A 2.83 2.81 -46.7 0 1 115.92 38.57
  L 120.86 40.72
  A 0.38 0.38 0.0 0 0 121.22 40.05
  Z"
/>
<path fill="#fbfbfb" d="
  M 96.42 0.00
  L 133.81 0.00
  C 130.84 1.68 133.46 4.17 130.94 5.70
  C 126.03 8.71 119.60 13.30 114.17 14.89
  L 97.19 5.18
  Q 98.20 0.29 96.42 0.00
  Z"
/>
<path fill="#fbfbfb" d="
  M 162.80 0.00
  L 213.72 0.00
  Q 210.98 3.55 209.48 8.70
  Q 209.34 9.19 208.95 9.52
  C 205.22 12.74 202.52 16.34 198.78 20.19
  C 195.96 23.11 195.58 25.97 191.86 28.58
  Q 191.44 28.88 191.26 29.38
  C 189.57 34.33 185.78 37.53 183.96 42.24
  Q 181.65 48.19 178.54 52.05
  C 175.99 55.24 174.56 58.35 172.38 61.49
  C 170.18 64.67 170.34 67.88 167.12 70.67
  Q 164.71 72.76 164.04 73.86
  Q 162.05 77.10 161.11 80.85
  Q 160.98 81.36 160.58 81.68
  Q 158.21 83.57 157.27 85.25
  C 153.95 91.13 151.69 94.98 146.78 98.43
  Q 146.39 98.71 146.21 99.16
  C 144.45 103.80 141.45 104.34 138.58 107.63
  Q 134.74 112.04 129.04 113.72
  C 127.26 114.24 125.36 113.40 123.68 115.11
  A 1.20 1.19 -68.1 0 1 122.86 115.46
  C 118.38 115.47 114.46 116.69 110.17 115.12
  A 0.74 0.71 46.3 0 0 109.73 115.10
  L 103.80 116.55
  Q 103.28 116.68 102.91 117.07
  C 100.37 119.77 99.95 123.30 99.10 126.73
  Q 98.97 127.29 98.48 127.57
  L 83.78 136.21
  A 3.81 3.81 0.0 0 0 81.90 139.63
  L 82.38 153.54
  A 1.24 1.23 -84.9 0 1 80.89 154.79
  C 77.43 154.06 72.11 150.87 69.01 151.54
  C 63.34 152.75 56.75 150.81 51.44 148.80
  Q 50.07 148.28 47.77 149.15
  Q 47.25 149.35 47.20 149.90
  L 46.66 155.98
  A 2.30 2.30 0.0 0 0 47.89 158.23
  L 57.20 163.06
  L 63.85 167.27
  L 64.25 172.50
  A 2.29 2.24 -61.7 0 0 64.49 173.33
  L 66.03 176.25
  L 0.00 176.27
  L 0.00 129.42
  L 0.61 131.96
  Q 0.74 132.50 1.21 132.81
  Q 6.10 136.07 11.99 135.87
  A 1.66 1.57 -62.2 0 0 12.84 135.58
  Q 18.41 131.65 24.16 127.97
  Q 25.56 127.08 25.80 124.93
  Q 26.99 114.23 26.79 106.75
  Q 26.78 106.28 27.18 106.04
  L 42.46 96.91
  A 3.01 2.99 76.1 0 0 43.92 94.48
  L 44.93 76.04
  L 60.87 66.37
  Q 61.62 65.92 61.63 65.05
  L 61.86 45.51
  L 78.55 35.84
  Q 79.02 35.57 79.51 35.80
  Q 88.51 39.88 96.45 45.76
  Q 96.90 46.09 97.45 46.07
  L 104.48 45.80
  Q 104.99 45.78 105.46 46.01
  L 107.12 46.84
  A 0.31 0.30 -34.3 0 0 107.29 46.87
  L 118.77 45.74
  A 1.99 1.91 -66.4 0 0 119.78 45.32
  C 122.86 42.85 124.00 49.89 129.32 47.23
  Q 136.66 43.56 145.95 37.42
  C 150.03 34.72 149.34 31.40 150.06 26.98
  A 0.22 0.22 0.0 0 1 150.50 27.01
  L 150.50 27.46
  Q 150.50 27.89 150.71 27.52
  L 151.33 26.45
  Q 151.59 26.00 152.11 26.00
  L 152.49 26.00
  A 0.55 0.55 0.0 0 0 153.01 25.27
  Q 152.74 24.53 151.93 24.49
  Q 151.37 24.45 151.29 23.90
  L 151.25 23.60
  Q 151.16 22.93 151.84 22.92
  Q 161.53 22.77 171.19 22.22
  C 174.41 22.03 176.76 20.06 180.44 20.25
  Q 180.99 20.27 181.46 20.00
  Q 183.48 18.86 183.48 16.52
  A 1.08 1.08 0.0 0 0 183.13 15.70
  C 180.52 13.23 178.28 11.19 174.84 9.28
  Q 170.80 7.05 167.37 3.94
  A 0.46 0.45 44.1 0 1 167.35 3.28
  L 167.74 2.89
  A 1.40 1.40 0.0 0 0 166.92 0.52
  L 162.80 0.00
  Z"
/>
<path fill="#f2f2f2" d="
  M 213.72 0.00
  L 264.00 0.00
  L 264.00 75.07
  Q 263.70 74.34 263.74 73.26
  Q 263.76 72.68 263.24 72.96
  C 261.46 73.93 258.06 74.87 258.02 77.26
  Q 257.84 89.37 258.03 95.44
  Q 258.04 95.95 258.42 96.30
  Q 260.86 98.59 264.00 99.63
  L 264.00 125.58
  Q 263.53 124.41 263.82 123.36
  A 0.69 0.69 0.0 0 0 263.16 122.48
  L 241.08 122.05
  A 1.01 1.00 0.0 0 1 240.09 121.07
  L 239.78 106.77
  Q 239.77 106.11 239.20 105.77
  L 225.44 97.51
  A 3.35 3.34 12.9 0 1 223.84 94.97
  L 223.58 92.35
  Q 223.52 91.70 222.86 91.72
  L 191.65 92.61
  A 0.72 0.70 9.6 0 0 191.02 93.05
  L 190.26 94.96
  Q 190.08 95.42 189.61 95.57
  L 187.43 96.28
  Q 186.98 96.42 186.76 96.84
  L 185.62 99.09
  A 0.85 0.84 18.1 0 1 184.73 99.54
  Q 180.58 98.88 180.19 103.00
  Q 180.15 103.38 179.76 103.35
  C 168.13 102.49 169.62 118.58 170.41 126.48
  Q 170.46 127.02 170.93 127.29
  L 187.27 136.78
  Q 187.80 137.09 188.32 136.77
  L 204.38 126.91
  Q 204.86 126.62 205.34 126.90
  L 221.72 136.35
  A 2.38 2.38 0.0 0 0 224.17 136.30
  Q 229.98 132.60 236.45 128.80
  C 242.36 125.31 251.59 133.81 257.65 136.69
  A 0.92 0.92 0.0 0 0 258.53 136.65
  L 264.00 133.31
  L 264.00 160.43
  L 258.02 157.67
  Q 257.50 157.43 257.00 157.71
  L 240.63 167.13
  Q 233.05 163.31 225.44 159.04
  Q 224.43 158.48 224.13 157.78
  C 223.38 156.06 222.30 155.09 220.39 156.16
  Q 220.01 156.38 219.57 156.36
  C 218.26 156.33 217.20 155.84 215.95 155.81
  C 208.47 155.64 198.17 154.25 191.17 156.65
  Q 188.56 157.55 188.04 154.77
  Q 187.94 154.24 187.42 154.12
  L 182.89 153.11
  A 0.96 0.96 0.0 0 0 181.96 153.40
  Q 179.98 155.58 177.66 157.31
  Q 177.26 157.60 177.16 157.93
  Q 176.98 158.51 177.11 159.16
  Q 177.18 159.49 176.95 159.75
  C 174.66 162.29 171.82 162.11 169.17 163.53
  A 0.92 0.91 -36.9 0 0 168.96 164.99
  Q 171.47 167.44 170.55 171.00
  Q 170.42 171.47 170.52 171.94
  L 171.42 176.25
  L 66.03 176.25
  L 64.49 173.33
  A 2.29 2.24 -61.7 0 1 64.25 172.50
  L 63.85 167.27
  Q 67.59 166.70 70.02 163.45
  Q 70.37 162.98 69.80 162.87
  Q 67.36 162.38 65.70 164.19
  A 0.63 0.61 32.1 0 1 65.00 164.34
  Q 60.66 162.45 57.75 161.98
  Q 57.12 161.87 57.20 163.06
  L 47.89 158.23
  A 2.30 2.30 0.0 0 1 46.66 155.98
  L 47.20 149.90
  Q 47.25 149.35 47.77 149.15
  Q 50.07 148.28 51.44 148.80
  C 56.75 150.81 63.34 152.75 69.01 151.54
  C 72.11 150.87 77.43 154.06 80.89 154.79
  A 1.24 1.23 -84.9 0 0 82.38 153.54
  L 81.90 139.63
  A 3.81 3.81 0.0 0 1 83.78 136.21
  L 98.48 127.57
  Q 98.97 127.29 99.10 126.73
  C 99.95 123.30 100.37 119.77 102.91 117.07
  Q 103.28 116.68 103.80 116.55
  L 109.73 115.10
  A 0.74 0.71 46.3 0 1 110.17 115.12
  C 114.46 116.69 118.38 115.47 122.86 115.46
  A 1.20 1.19 -68.1 0 0 123.68 115.11
  C 125.36 113.40 127.26 114.24 129.04 113.72
  Q 134.74 112.04 138.58 107.63
  C 141.45 104.34 144.45 103.80 146.21 99.16
  Q 146.39 98.71 146.78 98.43
  C 151.69 94.98 153.95 91.13 157.27 85.25
  Q 158.21 83.57 160.58 81.68
  Q 160.98 81.36 161.11 80.85
  Q 162.05 77.10 164.04 73.86
  Q 164.71 72.76 167.12 70.67
  C 170.34 67.88 170.18 64.67 172.38 61.49
  C 174.56 58.35 175.99 55.24 178.54 52.05
  Q 181.65 48.19 183.96 42.24
  C 185.78 37.53 189.57 34.33 191.26 29.38
  Q 191.44 28.88 191.86 28.58
  C 195.58 25.97 195.96 23.11 198.78 20.19
  C 202.52 16.34 205.22 12.74 208.95 9.52
  Q 209.34 9.19 209.48 8.70
  Q 210.98 3.55 213.72 0.00
  Z
  M 227.19 69.52
  Q 220.35 65.81 213.42 68.72
  A 1.07 1.07 0.0 0 0 213.31 70.65
  L 222.11 75.54
  A 1.54 1.52 -45.2 0 0 223.63 75.53
  Q 230.73 71.45 236.93 66.11
  A 0.24 0.24 0.0 0 0 236.68 65.71
  L 228.00 69.55
  Q 227.59 69.73 227.19 69.52
  Z
  M 115.04 154.53
  L 114.40 152.75
  Q 114.22 152.25 113.81 152.59
  C 110.65 155.11 108.10 153.74 104.52 154.78
  C 98.86 156.43 93.49 154.79 88.64 155.71
  Q 86.61 156.10 85.31 155.87
  A 1.48 1.48 0.0 0 0 84.31 158.60
  L 98.36 166.81
  A 2.43 2.42 45.1 0 0 100.78 166.82
  L 115.70 158.27
  A 2.72 2.71 44.7 0 1 118.37 158.26
  L 133.83 166.95
  A 1.11 1.11 0.0 0 0 134.76 167.02
  Q 140.07 165.07 144.11 161.11
  A 1.31 1.31 0.0 0 0 143.75 158.99
  Q 140.48 157.46 137.73 155.11
  Q 137.32 154.76 136.80 154.68
  Q 130.64 153.64 125.92 149.58
  Q 124.37 148.24 120.41 146.75
  Q 119.95 146.57 119.83 146.10
  L 119.57 145.08
  A 1.31 1.30 -52.0 0 0 117.00 145.40
  L 117.00 154.19
  A 1.01 1.01 0.0 0 1 115.04 154.53
  Z"
/>
<path fill="#dfdfdf" d="
  M 97.19 5.18
  L 114.17 14.89
  Q 115.05 14.86 114.95 16.07
  Q 114.65 19.96 114.77 22.91
  Q 114.84 24.81 113.05 24.15
  Q 107.00 21.92 102.09 17.74
  Q 101.71 17.42 101.22 17.32
  Q 96.65 16.39 95.71 11.83
  Q 95.63 11.42 95.32 11.13
  L 92.52 8.46
  A 0.51 0.51 0.0 0 1 92.62 7.64
  L 97.19 5.18
  Z"
/>
<path fill="#fbfbfb" d="
  M 0.00 9.47
  L 8.01 14.33
  C 9.95 19.03 9.01 23.80 9.19 27.77
  Q 9.36 31.78 9.15 35.52
  L 0.00 40.32
  L 0.00 9.47
  Z"
/>
<path fill="#dfdfdf" d="
  M 61.86 45.51
  L 61.63 65.05
  Q 61.62 65.92 60.87 66.37
  L 44.93 76.04
  Q 41.07 76.00 36.96 76.34
  C 30.09 76.91 24.31 76.89 17.89 76.69
  Q 17.39 76.68 16.95 76.93
  C 15.11 77.96 10.89 76.65 9.08 76.01
  L 0.00 71.60
  L 0.00 40.32
  L 9.15 35.52
  L 25.86 45.22
  A 2.02 2.01 44.6 0 0 27.91 45.21
  L 44.06 35.61
  Q 44.49 35.35 44.92 35.61
  L 61.86 45.51
  Z"
/>
<path fill="#dfdfdf" d="
  M 121.22 40.05
  A 0.38 0.38 0.0 0 1 120.86 40.72
  L 115.92 38.57
  A 2.83 2.81 -46.7 0 0 113.51 38.65
  Q 111.49 39.67 109.22 39.76
  A 0.25 0.25 0.0 0 1 109.12 39.27
  Q 111.88 38.26 113.52 35.80
  A 0.69 0.68 -56.2 0 1 114.46 35.61
  L 121.22 40.05
  Z"
/>
<path fill="#dfdfdf" d="
  M 228.00 69.55
  L 236.68 65.71
  A 0.24 0.24 0.0 0 1 236.93 66.11
  Q 230.73 71.45 223.63 75.53
  A 1.54 1.52 -45.2 0 1 222.11 75.54
  L 213.31 70.65
  A 1.07 1.07 0.0 0 1 213.42 68.72
  Q 220.35 65.81 227.19 69.52
  Q 227.59 69.73 228.00 69.55
  Z"
/>
<path fill="#fbfbfb" d="
  M 0.00 71.60
  L 9.08 76.01
  L 9.15 96.93
  Q 2.13 99.13 0.00 103.40
  L 0.00 71.60
  Z"
/>
<path fill="#a1a1a1" d="
  M 264.00 75.07
  L 264.00 99.63
  Q 260.86 98.59 258.42 96.30
  Q 258.04 95.95 258.03 95.44
  Q 257.84 89.37 258.02 77.26
  C 258.06 74.87 261.46 73.93 263.24 72.96
  Q 263.76 72.68 263.74 73.26
  Q 263.70 74.34 264.00 75.07
  Z"
/>
<path fill="#f2f2f2" d="
  M 44.93 76.04
  L 43.92 94.48
  A 3.01 2.99 76.1 0 1 42.46 96.91
  L 27.18 106.04
  Q 26.78 106.28 26.79 106.75
  Q 26.99 114.23 25.80 124.93
  Q 25.56 127.08 24.16 127.97
  Q 18.41 131.65 12.84 135.58
  A 1.66 1.57 -62.2 0 1 11.99 135.87
  Q 6.10 136.07 1.21 132.81
  Q 0.74 132.50 0.61 131.96
  L 0.00 129.42
  L 0.00 107.19
  C 7.23 107.10 13.02 108.68 20.60 106.39
  A 0.97 0.93 48.1 0 1 21.29 106.44
  Q 22.90 107.19 24.17 106.16
  Q 24.71 105.72 24.10 105.37
  L 9.15 96.93
  L 9.08 76.01
  C 10.89 76.65 15.11 77.96 16.95 76.93
  Q 17.39 76.68 17.89 76.69
  C 24.31 76.89 30.09 76.91 36.96 76.34
  Q 41.07 76.00 44.93 76.04
  Z"
/>
<path fill="#dfdfdf" d="
  M 264.00 125.58
  L 264.00 133.31
  L 258.53 136.65
  A 0.92 0.92 0.0 0 1 257.65 136.69
  C 251.59 133.81 242.36 125.31 236.45 128.80
  Q 229.98 132.60 224.17 136.30
  A 2.38 2.38 0.0 0 1 221.72 136.35
  L 205.34 126.90
  Q 204.86 126.62 204.38 126.91
  L 188.32 136.77
  Q 187.80 137.09 187.27 136.78
  L 170.93 127.29
  Q 170.46 127.02 170.41 126.48
  C 169.62 118.58 168.13 102.49 179.76 103.35
  Q 180.15 103.38 180.19 103.00
  Q 180.58 98.88 184.73 99.54
  A 0.85 0.84 18.1 0 0 185.62 99.09
  L 186.76 96.84
  Q 186.98 96.42 187.43 96.28
  L 189.61 95.57
  Q 190.08 95.42 190.26 94.96
  L 191.02 93.05
  A 0.72 0.70 9.6 0 1 191.65 92.61
  L 222.86 91.72
  Q 223.52 91.70 223.58 92.35
  L 223.84 94.97
  A 3.35 3.34 12.9 0 0 225.44 97.51
  L 239.20 105.77
  Q 239.77 106.11 239.78 106.77
  L 240.09 121.07
  A 1.01 1.00 0.0 0 0 241.08 122.05
  L 263.16 122.48
  A 0.69 0.69 0.0 0 1 263.82 123.36
  Q 263.53 124.41 264.00 125.58
  Z"
/>
<path fill="#dfdfdf" d="
  M 9.15 96.93
  L 24.10 105.37
  Q 24.71 105.72 24.17 106.16
  Q 22.90 107.19 21.29 106.44
  A 0.97 0.93 48.1 0 0 20.60 106.39
  C 13.02 108.68 7.23 107.10 0.00 107.19
  L 0.00 103.40
  Q 2.13 99.13 9.15 96.93
  Z"
/>
<path fill="#dfdfdf" d="
  M 115.04 154.53
  A 1.01 1.01 0.0 0 0 117.00 154.19
  L 117.00 145.40
  A 1.31 1.30 -52.0 0 1 119.57 145.08
  L 119.83 146.10
  Q 119.95 146.57 120.41 146.75
  Q 124.37 148.24 125.92 149.58
  Q 130.64 153.64 136.80 154.68
  Q 137.32 154.76 137.73 155.11
  Q 140.48 157.46 143.75 158.99
  A 1.31 1.31 0.0 0 1 144.11 161.11
  Q 140.07 165.07 134.76 167.02
  A 1.11 1.11 0.0 0 1 133.83 166.95
  L 118.37 158.26
  A 2.72 2.71 44.7 0 0 115.70 158.27
  L 100.78 166.82
  A 2.43 2.42 45.1 0 1 98.36 166.81
  L 84.31 158.60
  A 1.48 1.48 0.0 0 1 85.31 155.87
  Q 86.61 156.10 88.64 155.71
  C 93.49 154.79 98.86 156.43 104.52 154.78
  C 108.10 153.74 110.65 155.11 113.81 152.59
  Q 114.22 152.25 114.40 152.75
  L 115.04 154.53
  Z"
/>
<path fill="#dfdfdf" d="
  M 240.63 167.13
  Q 239.78 171.25 240.51 176.25
  L 171.42 176.25
  L 170.52 171.94
  Q 170.42 171.47 170.55 171.00
  Q 171.47 167.44 168.96 164.99
  A 0.92 0.91 -36.9 0 1 169.17 163.53
  C 171.82 162.11 174.66 162.29 176.95 159.75
  Q 177.18 159.49 177.11 159.16
  Q 176.98 158.51 177.16 157.93
  Q 177.26 157.60 177.66 157.31
  Q 179.98 155.58 181.96 153.40
  A 0.96 0.96 0.0 0 1 182.89 153.11
  L 187.42 154.12
  Q 187.94 154.24 188.04 154.77
  Q 188.56 157.55 191.17 156.65
  C 198.17 154.25 208.47 155.64 215.95 155.81
  C 217.20 155.84 218.26 156.33 219.57 156.36
  Q 220.01 156.38 220.39 156.16
  C 222.30 155.09 223.38 156.06 224.13 157.78
  Q 224.43 158.48 225.44 159.04
  Q 233.05 163.31 240.63 167.13
  Z"
/>
<path fill="#a1a1a1" d="
  M 264.00 160.43
  L 264.00 176.56
  Q 263.69 176.42 263.69 175.74
  A 0.02 0.02 0.0 0 0 263.65 175.73
  Q 263.50 175.88 263.35 176.01
  A 0.99 0.98 25.2 0 1 262.73 176.23
  L 240.51 176.25
  Q 239.78 171.25 240.63 167.13
  L 257.00 157.71
  Q 257.50 157.43 258.02 157.67
  L 264.00 160.43
  Z"
/>
<path fill="#dfdfdf" d="
  M 63.85 167.27
  L 57.20 163.06
  Q 57.12 161.87 57.75 161.98
  Q 60.66 162.45 65.00 164.34
  A 0.63 0.61 32.1 0 0 65.70 164.19
  Q 67.36 162.38 69.80 162.87
  Q 70.37 162.98 70.02 163.45
  Q 67.59 166.70 63.85 167.27
  Z"
/>
<path fill="#241e20" d="
  M 264.00 176.56
  L 264.00 191.00
  L 0.00 191.00
  L 0.00 176.27
  L 66.03 176.25
  L 171.42 176.25
  L 240.51 176.25
  L 262.73 176.23
  A 0.99 0.98 25.2 0 0 263.35 176.01
  Q 263.50 175.88 263.65 175.73
  A 0.02 0.02 0.0 0 1 263.69 175.74
  Q 263.69 176.42 264.00 176.56
  Z
  M 133.96 183.28
  C 132.35 183.22 129.37 183.84 128.68 181.95
  A 0.34 0.34 0.0 0 0 128.02 182.06
  L 127.99 184.00
  Q 127.98 184.71 128.68 184.85
  Q 131.68 185.45 133.17 185.20
  Q 134.32 185.00 134.44 183.84
  Q 134.50 183.30 133.96 183.28
  Z
  M 107.85 182.86
  Q 106.40 181.20 105.12 182.83
  A 1.46 1.46 0.0 0 0 106.46 185.18
  Q 109.96 184.73 113.00 186.06
  Q 113.47 186.26 113.86 185.94
  L 115.69 184.45
  A 0.68 0.68 0.0 0 0 115.26 183.25
  L 108.71 183.25
  A 1.14 1.14 0.0 0 1 107.85 182.86
  Z
  M 121.16 183.87
  L 117.56 182.28
  A 0.24 0.24 0.0 0 0 117.24 182.40
  L 117.05 182.84
  A 1.96 1.94 -66.2 0 0 118.03 185.42
  L 118.53 185.64
  A 1.96 1.94 -66.2 0 0 121.09 184.62
  L 121.29 184.19
  A 0.24 0.24 0.0 0 0 121.16 183.87
  Z
  M 124.32 182.95
  Q 122.93 181.68 122.79 183.98
  A 0.96 0.95 -88.3 0 0 123.74 185.00
  L 125.50 185.00
  A 1.58 1.49 -22.8 0 0 126.67 182.38
  Q 125.67 181.48 125.05 182.80
  Q 124.78 183.37 124.32 182.95
  Z
  M 151.75 183.21
  Q 151.75 183.08 151.77 182.95
  Q 151.84 182.37 151.29 182.54
  C 149.25 183.15 146.90 183.35 144.89 182.52
  Q 144.31 182.29 143.90 182.68
  Q 143.54 183.02 143.06 183.14
  Q 140.39 183.81 137.90 182.82
  Q 137.45 182.64 137.00 182.82
  L 135.42 183.44
  A 0.88 0.88 0.0 0 0 135.74 185.14
  C 142.53 185.12 152.50 186.38 158.89 184.83
  A 0.85 0.85 0.0 0 0 158.65 183.16
  L 152.03 183.48
  Q 151.75 183.49 151.75 183.21
  Z"
/>
<path fill="#a1a1a1" d="
  M 128.68 181.95
  C 129.37 183.84 132.35 183.22 133.96 183.28
  Q 134.50 183.30 134.44 183.84
  Q 134.32 185.00 133.17 185.20
  Q 131.68 185.45 128.68 184.85
  Q 127.98 184.71 127.99 184.00
  L 128.02 182.06
  A 0.34 0.34 0.0 0 1 128.68 181.95
  Z"
/>
<path fill="#a1a1a1" d="
  M 108.71 183.25
  L 115.26 183.25
  A 0.68 0.68 0.0 0 1 115.69 184.45
  L 113.86 185.94
  Q 113.47 186.26 113.00 186.06
  Q 109.96 184.73 106.46 185.18
  A 1.46 1.46 0.0 0 1 105.12 182.83
  Q 106.40 181.20 107.85 182.86
  A 1.14 1.14 0.0 0 0 108.71 183.25
  Z
  M 106.5000 184.2400
  A 0.74 0.52 90.0 0 0 107.0200 183.5000
  A 0.74 0.52 90.0 0 0 106.5000 182.7600
  A 0.74 0.52 90.0 0 0 105.9800 183.5000
  A 0.74 0.52 90.0 0 0 106.5000 184.2400
  Z"
/>
<path fill="#a1a1a1" d="
  M 121.16 183.87
  A 0.24 0.24 0.0 0 1 121.29 184.19
  L 121.09 184.62
  A 1.96 1.94 -66.2 0 1 118.53 185.64
  L 118.03 185.42
  A 1.96 1.94 -66.2 0 1 117.05 182.84
  L 117.24 182.40
  A 0.24 0.24 0.0 0 1 117.56 182.28
  L 121.16 183.87
  Z"
/>
<path fill="#a1a1a1" d="
  M 125.05 182.80
  Q 125.67 181.48 126.67 182.38
  A 1.58 1.49 -22.8 0 1 125.50 185.00
  L 123.74 185.00
  A 0.96 0.95 -88.3 0 1 122.79 183.98
  Q 122.93 181.68 124.32 182.95
  Q 124.78 183.37 125.05 182.80
  Z"
/>
<path fill="#a1a1a1" d="
  M 152.03 183.48
  L 158.65 183.16
  A 0.85 0.85 0.0 0 1 158.89 184.83
  C 152.50 186.38 142.53 185.12 135.74 185.14
  A 0.88 0.88 0.0 0 1 135.42 183.44
  L 137.00 182.82
  Q 137.45 182.64 137.90 182.82
  Q 140.39 183.81 143.06 183.14
  Q 143.54 183.02 143.90 182.68
  Q 144.31 182.29 144.89 182.52
  C 146.90 183.35 149.25 183.15 151.29 182.54
  Q 151.84 182.37 151.77 182.95
  Q 151.75 183.08 151.75 183.21
  Q 151.75 183.49 152.03 183.48
  Z"
/>
<ellipse fill="#241e20" cx="0.00" cy="0.00" transform="translate(106.50,183.50) rotate(90.0)" rx="0.74" ry="0.52"/>
</svg>
