<?xml version="1.0" encoding="UTF-8" standalone="no"?>
<!DOCTYPE svg PUBLIC "-//W3C//DTD SVG 1.1//EN" "http://www.w3.org/Graphics/SVG/1.1/DTD/svg11.dtd">
<svg xmlns="http://www.w3.org/2000/svg" version="1.1" viewBox="0.00 0.00 100.00 100.00">
<path fill="#000000" d="
  M 8.81 71.26
  Q 8.01 69.33 8.01 68.25
  Q 7.99 47.59 8.01 26.93
  C 8.01 19.70 10.03 16.02 17.52 16.02
  Q 50.39 15.99 83.25 16.08
  C 90.49 16.10 91.98 20.55 91.99 27.10
  Q 92.02 47.51 91.99 67.91
  C 91.99 69.27 91.65 70.05 91.03 71.28
  A 0.49 0.49 0.0 0 0 91.47 71.99
  L 96.10 72.01
  A 1.88 1.88 0.0 0 1 97.97 74.02
  C 97.43 81.80 92.30 83.98 85.04 83.99
  Q 50.17 84.01 15.30 84.00
  C 8.58 83.99 3.81 82.71 2.23 75.86
  C 1.01 70.58 5.73 72.43 8.45 71.92
  Q 9.03 71.81 8.81 71.26
  Z
  M 88.00 24.01
  A 4.01 4.01 0.0 0 0 83.99 20.00
  L 16.01 20.00
  A 4.01 4.01 0.0 0 0 12.00 24.01
  L 12.00 67.99
  A 4.01 4.01 0.0 0 0 16.01 72.00
  L 83.99 72.00
  A 4.01 4.01 0.0 0 0 88.00 67.99
  L 88.00 24.01
  Z
  M 6.58 76.65
  C 7.93 79.09 10.03 79.98 12.93 79.98
  Q 50.13 80.02 87.33 79.99
  C 89.91 79.99 91.69 79.16 93.12 77.18
  A 0.74 0.74 0.0 0 0 92.52 76.00
  L 6.97 76.00
  A 0.44 0.44 0.0 0 0 6.58 76.65
  Z"
/>
<rect fill="#000000" x="-2.00" y="-16.25" transform="translate(50.00,46.00) rotate(12.1)" width="4.00" height="32.50" rx="1.96"/>
<path fill="#000000" d="
  M 36.89 36.13
  A 1.75 1.75 0.0 0 1 37.82 38.86
  L 32.99 45.34
  A 1.06 1.06 0.0 0 0 32.98 46.61
  L 37.88 53.24
  A 1.57 1.57 0.0 0 1 37.48 55.49
  Q 35.44 56.83 33.64 54.34
  Q 30.76 50.36 27.90 46.50
  A 0.89 0.89 0.0 0 1 27.90 45.44
  Q 31.01 41.27 34.25 37.02
  Q 35.27 35.68 36.89 36.13
  Z"
/>
<path fill="#000000" d="
  M 65.22 36.39
  L 72.18 45.50
  A 0.71 0.71 0.0 0 1 72.20 46.32
  C 70.13 49.27 67.85 52.03 65.79 54.91
  Q 64.49 56.72 62.72 55.42
  A 1.82 1.81 36.8 0 1 62.35 52.87
  L 67.06 46.58
  A 0.96 0.95 45.6 0 0 67.07 45.45
  L 62.18 38.85
  A 1.23 1.22 35.1 0 1 61.99 37.78
  Q 62.44 36.24 64.12 35.96
  A 1.14 1.13 66.3 0 1 65.22 36.39
  Z"
/>
</svg>
