<?xml version="1.0" encoding="UTF-8" standalone="no"?>
<!DOCTYPE svg PUBLIC "-//W3C//DTD SVG 1.1//EN" "http://www.w3.org/Graphics/SVG/1.1/DTD/svg11.dtd">
<svg xmlns="http://www.w3.org/2000/svg" version="1.1" viewBox="0.00 0.00 360.00 182.00">
<path fill="#000000" d="
  M 77.09 79.92
  A 0.30 0.30 0.0 0 0 76.52 79.78
  L 68.51 95.83
  A 1.76 1.76 0.0 0 1 65.34 95.81
  L 57.34 79.11
  A 0.29 0.29 0.0 0 0 56.79 79.24
  L 57.09 95.82
  Q 57.10 96.50 56.42 96.50
  L 54.62 96.50
  Q 53.99 96.50 53.99 95.87
  L 54.03 77.62
  Q 54.04 77.03 54.61 76.90
  L 58.03 76.14
  Q 58.59 76.02 58.85 76.53
  L 66.69 92.14
  A 0.51 0.51 0.0 0 0 67.61 92.14
  L 75.30 76.57
  Q 75.58 76.00 76.21 76.00
  L 79.36 76.00
  Q 79.96 76.00 79.97 76.61
  L 80.20 95.89
  Q 80.21 96.50 79.61 96.50
  L 77.73 96.50
  Q 76.95 96.50 76.96 95.73
  L 77.09 79.92
  Z"
/>
<path fill="#000000" d="
  M 88.92 96.62
  A 0.33 0.32 13.0 0 1 88.62 96.15
  L 98.41 77.01
  A 2.04 2.04 0.0 0 1 102.04 77.02
  L 111.52 95.74
  Q 111.80 96.28 111.24 96.53
  C 108.17 97.86 106.66 92.51 105.62 90.53
  Q 105.34 90.00 104.74 90.00
  L 95.39 90.01
  A 0.84 0.83 13.1 0 0 94.64 90.47
  L 91.88 95.99
  Q 91.60 96.55 90.98 96.56
  L 88.92 96.62
  Z
  M 96.29 87.30
  A 0.34 0.34 0.0 0 0 96.59 87.79
  L 103.88 87.83
  A 0.34 0.34 0.0 0 0 104.19 87.34
  L 100.58 79.78
  A 0.34 0.34 0.0 0 0 99.97 79.78
  L 96.29 87.30
  Z"
/>
<path fill="#000000" d="
  M 126.79 85.64
  Q 129.60 81.42 132.47 77.24
  C 133.44 75.83 134.36 75.59 135.91 76.10
  A 0.52 0.52 0.0 0 1 136.17 76.89
  L 128.30 88.03
  Q 128.00 88.46 128.00 88.98
  L 128.00 95.83
  A 0.65 0.65 0.0 0 1 127.36 96.48
  L 125.26 96.51
  Q 124.75 96.52 124.75 96.01
  L 124.75 89.22
  Q 124.75 88.68 124.45 88.25
  L 116.47 76.81
  Q 116.11 76.30 116.70 76.09
  C 118.45 75.48 119.58 76.20 120.53 77.74
  Q 123.05 81.88 126.07 85.67
  Q 126.45 86.15 126.79 85.64
  Z"
/>
<path fill="#000000" d="
  M 158.55 85.21
  A 0.38 0.38 0.0 0 0 158.46 85.92
  L 161.91 87.69
  A 0.56 0.54 -88.9 0 1 162.17 87.97
  C 166.54 98.13 149.81 96.73 145.03 96.53
  Q 144.52 96.51 144.52 96.00
  L 144.49 76.99
  A 0.93 0.93 0.0 0 1 145.36 76.06
  Q 151.33 75.69 157.48 76.59
  C 162.64 77.34 163.93 84.05 158.55 85.21
  Z
  M 147.74 78.58
  L 147.76 84.42
  A 0.45 0.45 0.0 0 0 148.21 84.87
  L 153.51 84.86
  A 5.27 3.06 -0.1 0 0 158.77 81.79
  L 158.77 81.17
  A 5.27 3.06 -0.1 0 0 153.49 78.12
  L 148.19 78.13
  A 0.45 0.45 0.0 0 0 147.74 78.58
  Z
  M 147.75 87.81
  L 147.73 93.59
  A 0.86 0.86 0.0 0 0 148.59 94.45
  L 154.42 94.47
  A 5.09 3.49 0.2 0 0 159.52 91.00
  L 159.52 90.48
  A 5.09 3.49 0.2 0 0 154.44 86.97
  L 148.61 86.95
  A 0.86 0.86 0.0 0 0 147.75 87.81
  Z"
/>
<path fill="#000000" d="
  M 176.62 94.25
  L 187.56 94.25
  A 0.47 0.47 0.0 0 1 188.03 94.74
  L 187.96 96.05
  A 0.47 0.47 0.0 0 1 187.49 96.50
  L 173.47 96.50
  A 0.47 0.47 0.0 0 1 173.00 96.03
  L 173.00 76.47
  A 0.47 0.47 0.0 0 1 173.47 76.00
  L 187.22 76.00
  A 0.47 0.47 0.0 0 1 187.66 76.33
  L 188.09 77.67
  A 0.47 0.47 0.0 0 1 187.63 78.28
  L 176.47 78.17
  A 0.47 0.47 0.0 0 0 176.00 78.64
  L 176.00 84.34
  A 0.47 0.47 0.0 0 0 176.47 84.81
  L 186.82 84.72
  A 0.47 0.47 0.0 0 1 187.29 85.24
  L 187.15 86.58
  A 0.47 0.47 0.0 0 1 186.69 87.00
  L 176.49 87.00
  A 0.47 0.47 0.0 0 0 176.02 87.48
  L 176.15 93.79
  A 0.47 0.47 0.0 0 0 176.62 94.25
  Z"
/>
<path fill="#000000" d="
  M 201.59 94.25
  L 212.30 94.25
  A 0.47 0.47 0.0 0 1 212.76 94.62
  L 213.04 95.93
  A 0.47 0.47 0.0 0 1 212.58 96.50
  L 198.47 96.50
  A 0.47 0.47 0.0 0 1 198.00 96.03
  L 198.00 76.52
  A 0.47 0.47 0.0 0 1 198.47 76.05
  L 200.48 76.05
  A 0.47 0.47 0.0 0 1 200.95 76.52
  L 201.12 93.78
  A 0.47 0.47 0.0 0 0 201.59 94.25
  Z"
/>
<path fill="#000000" d="
  M 225.22 94.25
  L 235.78 94.25
  A 0.47 0.47 0.0 0 1 236.24 94.65
  L 236.45 95.96
  A 0.47 0.47 0.0 0 1 235.99 96.50
  L 222.09 96.50
  A 0.47 0.47 0.0 0 1 221.62 96.03
  L 221.77 76.47
  A 0.47 0.47 0.0 0 1 222.24 76.00
  L 224.28 76.00
  A 0.47 0.47 0.0 0 1 224.75 76.47
  L 224.75 93.78
  A 0.47 0.47 0.0 0 0 225.22 94.25
  Z"
/>
<rect fill="#000000" x="-1.59" y="-10.23" transform="translate(246.59,86.26) rotate(0.4)" width="3.18" height="20.46" rx="0.74"/>
<path fill="#000000" d="
  M 262.90 80.25
  L 263.04 95.85
  Q 263.05 96.50 262.40 96.50
  L 260.62 96.50
  Q 260.00 96.50 260.00 95.87
  L 260.00 77.78
  A 2.17 2.17 0.0 0 1 263.83 76.39
  L 277.41 92.64
  A 0.27 0.27 0.0 0 0 277.89 92.46
  L 277.69 76.66
  Q 277.68 76.00 278.34 76.00
  L 280.13 76.00
  Q 280.75 76.00 280.75 76.62
  L 280.75 95.03
  A 2.09 2.09 0.0 0 1 277.06 96.37
  L 263.41 80.07
  A 0.29 0.29 0.0 0 0 262.90 80.25
  Z"
/>
<path fill="#000000" d="
  M 295.00 78.57
  L 295.00 84.35
  A 0.47 0.47 0.0 0 0 295.48 84.82
  L 305.85 84.71
  A 0.47 0.47 0.0 0 1 306.32 85.24
  L 306.14 86.59
  A 0.47 0.47 0.0 0 1 305.67 87.00
  L 295.49 87.00
  A 0.47 0.47 0.0 0 0 295.02 87.48
  L 295.17 93.79
  A 0.47 0.47 0.0 0 0 295.64 94.25
  L 306.41 94.25
  A 0.47 0.47 0.0 0 1 306.88 94.72
  L 306.87 96.03
  A 0.47 0.47 0.0 0 1 306.40 96.50
  L 292.47 96.50
  A 0.47 0.47 0.0 0 1 292.00 96.03
  L 292.00 76.47
  A 0.47 0.47 0.0 0 1 292.47 76.00
  L 306.10 76.00
  A 0.47 0.47 0.0 0 1 306.54 76.29
  L 307.09 77.65
  A 0.47 0.47 0.0 0 1 306.64 78.30
  L 295.48 78.10
  A 0.47 0.47 0.0 0 0 295.00 78.57
  Z"
/>
<path fill="#000000" d="
  M 226.00 105.28
  L 226.00 101.56
  Q 226.00 101.11 226.43 101.23
  Q 226.58 101.27 226.73 101.33
  A 0.40 0.39 -81.0 0 1 227.00 101.71
  L 227.00 107.08
  A 0.68 0.68 0.0 0 1 225.81 107.52
  L 222.44 103.60
  A 0.51 0.51 0.0 0 0 221.55 103.97
  L 221.80 107.08
  Q 221.84 107.47 221.44 107.49
  Q 221.17 107.50 220.87 107.50
  A 0.38 0.38 0.0 0 1 220.49 107.12
  L 220.53 101.39
  A 0.58 0.58 0.0 0 1 221.56 101.02
  L 225.37 105.51
  A 0.36 0.36 0.0 0 0 226.00 105.28
  Z"
/>
<path fill="#000000" d="
  M 234.50 102.78
  L 234.50 103.09
  Q 234.50 103.69 235.10 103.71
  L 237.53 103.82
  A 0.35 0.34 26.4 0 1 237.74 104.43
  Q 236.94 105.08 236.10 104.58
  A 1.20 1.14 -11.6 0 0 234.76 106.50
  Q 235.92 107.26 237.19 106.59
  A 0.39 0.39 0.0 0 1 237.76 106.97
  Q 237.74 107.25 237.75 107.45
  A 0.34 0.34 0.0 0 1 237.39 107.80
  L 234.07 107.61
  A 0.85 0.85 0.0 0 1 233.26 106.76
  L 233.24 101.92
  Q 233.24 101.02 234.14 101.01
  L 237.48 100.99
  A 0.50 0.49 -83.8 0 1 237.96 101.59
  Q 237.90 101.84 237.66 101.97
  C 237.28 102.17 235.68 101.96 235.03 102.11
  Q 234.50 102.23 234.50 102.78
  Z"
/>
<path fill="#000000" d="
  M 268.37 102.63
  L 270.95 101.30
  A 0.44 0.44 0.0 0 1 271.40 102.06
  L 269.02 103.72
  A 0.44 0.44 0.0 0 0 268.84 104.06
  L 268.70 106.96
  A 0.44 0.44 0.0 0 1 267.82 106.97
  L 267.57 104.08
  A 0.44 0.44 0.0 0 0 267.37 103.75
  L 264.93 102.18
  A 0.44 0.44 0.0 0 1 265.35 101.41
  L 267.98 102.64
  A 0.44 0.44 0.0 0 0 268.37 102.63
  Z"
/>
<path fill="#000000" d="
  M 283.9105 104.6414
  A 3.89 3.37 4.0 0 1 279.7949 107.7318
  A 3.89 3.37 4.0 0 1 276.1495 104.0986
  A 3.89 3.37 4.0 0 1 280.2651 101.0082
  A 3.89 3.37 4.0 0 1 283.9105 104.6414
  Z
  M 282.64 104.36
  A 2.57 2.57 0.0 0 0 280.07 101.79
  A 2.57 2.57 0.0 0 0 277.50 104.36
  A 2.57 2.57 0.0 0 0 280.07 106.93
  A 2.57 2.57 0.0 0 0 282.64 104.36
  Z"
/>
<path fill="#000000" d="
  M 291.91 104.91
  A 0.70 0.69 -86.0 0 0 290.98 105.72
  Q 291.22 106.73 290.55 107.49
  A 0.45 0.45 0.0 0 1 289.76 107.19
  L 289.75 101.76
  Q 289.74 101.32 290.17 101.19
  Q 293.10 100.28 295.07 102.42
  A 0.74 0.74 0.0 0 1 295.00 103.49
  Q 293.04 105.10 295.06 106.66
  Q 295.52 107.02 295.05 107.36
  Q 294.34 107.87 294.06 107.18
  Q 293.39 105.49 291.91 104.91
  Z
  M 293.7949 103.1954
  A 1.53 1.23 4.7 0 0 292.3708 101.8441
  A 1.53 1.23 4.7 0 0 290.7451 102.9446
  A 1.53 1.23 4.7 0 0 292.1692 104.2959
  A 1.53 1.23 4.7 0 0 293.7949 103.1954
  Z"
/>
<path fill="#000000" d="
  M 250.31 105.01
  A 0.42 0.41 -46.3 0 0 251.09 104.99
  L 252.26 101.51
  A 0.50 0.50 0.0 0 1 252.93 101.21
  Q 253.11 101.29 253.27 101.34
  Q 253.46 101.39 253.39 101.58
  L 251.30 107.28
  A 0.65 0.65 0.0 0 1 250.07 107.28
  L 248.83 103.79
  A 0.55 0.55 0.0 0 0 247.80 103.78
  L 246.38 107.49
  A 0.60 0.60 0.0 0 1 245.25 107.48
  L 243.13 101.58
  A 0.40 0.40 0.0 0 1 243.78 101.16
  Q 245.30 102.57 245.16 104.76
  A 0.37 0.37 0.0 0 0 245.78 105.05
  Q 247.02 103.94 247.06 102.28
  A 1.07 1.07 0.0 0 1 249.14 101.93
  L 250.31 105.01
  Z"
/>
<path fill="#000000" d="
  M 302.65 103.89
  L 305.68 101.30
  A 0.53 0.52 37.7 0 1 306.25 101.23
  Q 306.38 101.30 306.51 101.33
  A 0.15 0.14 30.0 0 1 306.58 101.58
  L 304.22 103.70
  A 0.69 0.68 38.6 0 0 304.35 104.81
  Q 305.85 105.64 306.72 107.09
  A 0.45 0.45 0.0 0 1 306.00 107.63
  L 303.63 105.03
  A 0.83 0.83 0.0 0 0 302.22 105.80
  Q 302.51 106.92 301.92 107.67
  A 0.35 0.34 63.6 0 1 301.31 107.46
  L 301.10 101.48
  A 0.41 0.40 21.3 0 1 301.79 101.18
  Q 302.62 102.02 301.91 103.27
  A 0.49 0.49 0.0 0 0 302.65 103.89
  Z"
/>
</svg>
